<?xml version="1.0" encoding="UTF-8" standalone="no"?>
<svg
   xmlns:dc="http://purl.org/dc/elements/1.1/"
   xmlns:cc="http://creativecommons.org/ns#"
   xmlns:rdf="http://www.w3.org/1999/02/22-rdf-syntax-ns#"
   xmlns:svg="http://www.w3.org/2000/svg"
   xmlns="http://www.w3.org/2000/svg"
   xmlns:sodipodi="http://sodipodi.sourceforge.net/DTD/sodipodi-0.dtd"
   xmlns:inkscape="http://www.inkscape.org/namespaces/inkscape"
   viewBox="0 0 900 816"
   version="1.1"
   id="svg58"
   sodipodi:docname="coal.svg"
   inkscape:version="0.92.4 5da689c313, 2019-01-14">
  <metadata
     id="metadata64">
    <rdf:RDF>
      <cc:Work
         rdf:about="">
        <dc:format>image/svg+xml</dc:format>
        <dc:type
           rdf:resource="http://purl.org/dc/dcmitype/StillImage" />
      </cc:Work>
    </rdf:RDF>
  </metadata>
  <defs
     id="defs62" />
  <sodipodi:namedview
     pagecolor="#ffffff"
     bordercolor="#666666"
     borderopacity="1"
     objecttolerance="10"
     gridtolerance="10"
     guidetolerance="10"
     inkscape:pageopacity="0"
     inkscape:pageshadow="2"
     inkscape:window-width="1920"
     inkscape:window-height="1023"
     id="namedview60"
     showgrid="false"
     inkscape:zoom="0.28921569"
     inkscape:cx="456.91525"
     inkscape:cy="408"
     inkscape:window-x="0"
     inkscape:window-y="32"
     inkscape:window-maximized="1"
     inkscape:current-layer="g56" />
  <g
     fill-rule="evenodd"
     stroke-width=".5"
     id="g56">
    <path
       d="m740 96.8v0.2l-0.5 0.2q-0.5 0.3-0.3 0.6 0.3 0.2-1.4 1.4-1.8 1.3-1.3 2l0.5 0.8-4.5 0.2-4.5 0.3-1.5 1q-1.5 1 0 1.5t2 0 0.7-0.8l0.3-0.2 0.3-0.2 0.2-0.3 4.5 0.5q4.5 0.5 9.3 4.2 4.7 3.8 6.7 6.3t2.7 5.7q0.8 3.3 1 3.6l0.3 0.2 0.3 2 0.2 2-1.5 0.2q-1.5 0.3-4.5 0.8t-5.8 2.8q-2.7 2.2-7 4-4.2 1.7-6.2 0.7t-6.2-4.3q-4.3-3.2-11-8.4l-6.8-5.3-0.2-0.3-0.3-0.2-0.5-1-0.5-1-0.3-0.2-0.2-0.3-1-0.5-1-0.5-0.2-0.3-0.3-0.2-0.3 1-0.2 1h-2l0.2 1.5 0.3 1.5 0.3 0.2 0.2 0.3 0.2 0.3 0.3 0.2 0.3 0.2 0.2 0.3 0.2 0.3 0.3 0.2 0.3 0.2 0.2 0.3 0.2 0.3 0.3 0.2 4.5 4.5q4.5 4.5 5 5.5l0.5 1v1l-0.3 0.2-0.2 0.3 1 0.5 1 0.5 0.2 0.3 0.3 0.2v3l-0.3 0.2-0.2 0.3-0.2 0.3-0.3 0.2-0.3 0.2-0.2 0.3-6 0.5q-6 0.5-12 0t-7.8-5.2q-1.7-4.8-2.7-12.3l-1-7.5 0.3-0.2 0.2-0.3 0.2-0.3 0.3-0.2 0.3-0.2 0.2-0.3-1-0.5-1-0.5-1.5-0.5-1.5-0.5h-2l-0.2 0.3-0.3 0.2-0.5 2q-0.5 2-1 1.5t-0.5 4-3.5 5.5-8.2 2.2l-4.8 1.3-3.5 0.5-3.5 0.5 0.2 0.3 0.3 0.2 0.3 0.2 0.2 0.3h19l-1.5 0.5-1.5 0.5 0.2 0.3 0.3 0.2 0.3 0.2 0.2 0.3-5 0.5q-5 0.5-12.5 0.2l-7.5-0.2v-3l-1 0.2-1 0.3h-2l-0.2-0.3-0.3-0.2-0.3 1-0.2 1 1 0.2 1 0.3 0.2 0.3 0.3 0.2 0.3 0.2 0.2 0.3 2.5 1q2.5 1 3.3 1.3 0.7 0.2 1 1 0.2 0.7 0.4 1l0.3 0.2 0.3 0.2 0.2 0.3 0.2 0.3 0.3 0.2v4l-0.3 0.2-0.2 0.3-1 0.3-1 0.2v1q0 1-3 0.5t-2.2 1q0.7 1.5-2 2.3-2.8 0.7-3.3 2.4-0.5 1.8-7 6.6-6.5 4.7-7.5 7-1 2.2-4.5 2-3.5-0.3-7-3.6-3.5-3.2-4.7-5.7l-1.3-2.5-0.3-0.2-0.2-0.3-0.2-0.3-0.3-0.2-0.3-1-0.2-1h1q1 0 1 1t1 1-0.2-8.5q-1.3-8.5-3.6-12-2.2-3.5-10.2-3.3l-8 0.3-1 0.5-1 0.5-0.2 0.3-0.3 0.2-0.3 1-0.2 1 1-0.2 1-0.3 1.5-0.5 1.5-0.5h2q2 0 3 0.5l1 0.5 1 0.5 1 0.5 1 0.3 1 0.2-0.2 2.5-0.3 2.5-0.5 1-0.5 1-0.3 0.2-0.2 0.3-1 0.5q-1 0.5-2 1t-8.5 9.5-16.5 10-10.5 0-0.5-1.5-0.5-1.2q-1.5-0.8-1.7-1.8l-0.3-1-0.3-1-0.2-1-1-0.2-1-0.3-0.2-0.3-0.3-0.2v2l0.3 3q0.2 3-5.3 2.8l-5.5-0.3-0.2 0.3-0.3 0.2-0.3 0.2-0.2 0.3-0.2 0.3-0.3 0.2-0.3 0.2-0.2 0.3-0.2 0.3-0.3 0.2-0.3 0.2-0.2 0.3 0.2 0.3 0.3 0.2 0.3 1.5 0.2 1.5 12 0.8q12 0.7 12.5 0.2t2.5-0.5h2l0.2 0.3 0.3 0.2 0.5 6q0.5 6 1.8 9.8 1.2 3.7 3.2 7.7t3 4.3q1 0.2 2.5 3 1.5 2.7 2.5 3 1 0.2 3 3 2 2.7 3 3 1 0.2 1.2 1.7l0.3 1.5 0.5 1 0.5 1 0.5 1 0.5 1 0.3 1.5 0.2 1.5-0.5-0.2-0.5-0.3-0.2-0.3-0.3-0.2-0.5-1-0.5-1-0.5-1.5-0.5-1.5-0.3-0.2-0.2-0.3-0.2-0.3-0.3-0.2-0.5-1q-0.5-1-2.8-2.5-2.2-1.5-8.2-9t-7-7.5-1.8-2q-0.7-2-3.4-2.8l-2.8-0.7-1 0.3q-1 0.2-1 1.2t-1 1-1.2 1q-0.3 1-4.6 4.8-4.2 3.7-13.2 5.4l-9 1.8v2l-1 0.2-1 0.3-0.2 0.3-0.3 0.2v5l0.5 1 0.5 1 0.7 1.5q0.8 1.5 4.8 3.7 4 2.3 4.2 2.6l0.3 0.2 0.3 0.2 0.2 0.3 1 0.3 1 0.2 0.2 1 0.3 1 0.3 0.2 0.2 0.3 1 0.5 1 0.5-2 0.5-2 0.5h-10q-10 0-10.2-0.3-0.3-0.2-3.8-7.2l-3.5-7-0.5-1-0.5-1-0.3-0.2-0.2-0.3h-2l-0.2 0.3-0.3 0.2-0.3 1-0.2 1-1 0.2-1 0.3-0.2 0.3q-0.3 0.2-0.8 1.2t-4.2 4q-3.8 3-4.3 5.5t-72.5 3l-72 0.5h-287l-1.5-0.2-1.5-0.3-0.2-0.3-0.3-0.2h-0.5l0.2-1.5q0.3-1.5 0-11.7-0.2-10.3-0.7-11-0.5-0.8 1-0.8t2.3-9.5q0.7-9.5 2.4-14.5 1.8-5 0.3-5t-1.3-1.5l0.3-1.5 0.3-0.2 0.2-0.3h5q2 0 1.5 0.5t7 0.5 16 0 10-0.5l1.5-0.5 0.2-0.3 0.3-0.2 0.3 0.2 0.2 0.3 1 0.3 1 0.2v-2h-2q-2 0-1.8-2.5l0.3-2.5 0.3-0.2 0.2-0.3 1.2 0.3q1.3 0.2 1.8 1.7t1.5-2 0.7-8q-0.2-4.5 1.6-6 1.7-1.5 2-2.5 0.2-1 2.4-0.5 2.3 0.5 5.6 0 3.2-0.5 3.4-2 0.3-1.5 0.6 0 0.2 1.5 1.7 1.5t1.5-1 1.8-2.5q1.7-1.5 2-3.3 0.2-1.7 1-1 0.7 0.8 1-0.2 0.2-1 3.4-1.5 3.3-0.5 3.8 0.5l0.5 1 0.5-2q0.5-2 0.2-8.8l-0.2-6.7 0.2-0.3 0.3-0.2v-4l0.5-1.5 0.5-1.5 0.3-0.2 0.2-0.3-1-0.3-1-0.2-0.2 1-0.3 1-0.5 2-0.5 2v1q0 1 0 5v4l-0.3 0.2-0.2 0.3-1 0.3-1 0.2 0.2-1 0.3-1 0.3-0.2 0.2-0.3 0.2-0.3 0.3-0.2v-4l-0.3-0.2-0.2-0.3-0.2-0.3-0.3-0.2v-1.5q0-1.5-0.3-7.5l-0.2-6h1q1 0 1.2 1 0.3 1 0.6 0 0.2-1 10.4-1.5 10.3-0.5 14 0.3 3.8 0.7 7.3 1l3.5 0.2 0.2-1 0.3-1 0.3-0.2 0.2-0.3 0.2-0.3 0.3-0.2 0.5-1 0.5-1v-1l-0.5-1q-0.5-1-0.8 0.5-0.2 1.5-1.4 1l-1.3-0.5v-2l0.3-0.2 0.2-0.3 0.2-0.3 0.3-0.2v-2l-0.3-0.2-0.2-0.3 5.5-1.5q5.5-1.5 7.5-1.8 2-0.2 2-1.2t3.2-1.5q3.3-0.5 3-1.5-0.2-1 0.8-1t1.5-1.2q0.5-1.3 2-0.6 1.5 0.8 2-2.7t1.5-3.5 1-1 5-1.8q5-0.7 7-0.7t1.5 0.5 0.5 1l1 0.5 0.2 0.3 0.3 0.2 0.3-0.2 0.2-0.3h4l-0.2-0.3-0.3-0.2-0.3-0.2-0.2-0.3-1-0.3q-1-0.2-1.5-2.7l-0.5-2.5h3v-2h3v1q0 1 1 1.2 1 0.3 0 0.6-1 0.2-0.8 1.2l0.3 1 0.3-0.2 0.2-0.3 1.5-0.3q1.5-0.2 1-2.2t4-2 4.5-2.5 1.5-2.5h1.5v-3h-2v-2h3l0.2 5.5 0.3 5.5 0.5-8 0.5-8 0.5-1.5 0.5-1.5v-2l-0.3-0.2-0.2-0.3 0.2-0.3 0.3-0.2v-1l-0.3-0.2-0.2-0.3-0.2-0.3-0.3-0.2-0.5 3q-0.5 3-1 5l-0.5 2-0.3 1-0.2 1h-2v-5h2l0.5-4.2q0.5-4.3 2.3-4 1.7 0.2 1.7-2.3t-0.3-3.5q-0.2-1 0.8-1t1.2-3.5q0.3-3.5 0.6-2 0.2 1.5 1.2 1.5t2.8-3q1.7-3 2-4.5l0.2-1.5h2l0.5 1.8q0.5 1.7 1.5 1.4 1-0.2 0.5 1-0.5 1.3-0.7 1.6l-0.3 0.2-0.3 0.2-0.2 0.3 9.2-1.7q9.3-1.8 9 0-0.2 1.7 1 1.4 1.3-0.2 1.8-2.2t0.8-3l0.2-1h2l0.2 1 0.3 1v2q0 1 0.3 2 0.2 1-1.3 1.2l-1.5 0.3 0.2 0.3 0.3 0.2 0.3 0.2 0.2 0.3 0.2 0.3 0.3 0.2 0.3-0.2 0.2-0.3 0.2-0.3 0.3-0.2 0.5 1 0.5 1 0.3-0.2 0.2-0.3 1-0.5q1-0.5 2.5-0.8 1.5-0.2 1.5-1.2t1-1 1.2 1.5q0.3 1.5 0.6 0 0.2-1.5 3.7-1.5t3.5-1.5 1.5-1.5 1.5-1 1.2-0.5q1.3 0.5 1.6-0.5 0.2-1 2.2-1.5t1.8 0.5q-0.3 1-0.3 2.5v1.5l0.5-1 0.5-1 0.3-0.2 0.2-0.3 0.2-0.3 0.3-0.2v-1l-0.5-1q-0.5-1-1.8-3l-1.2-2 4.5-0.5q4.5-0.5 4.5-3t2-2.7q2-0.3 3-0.3h1l0.2-0.3 0.3-0.2 0.3 0.2 0.2 0.3 0.2 0.3 0.3 0.2 0.3-0.2 0.2-0.3 1-0.3 1-0.2v1q0 1-2 1.2l-2 0.3 7 0.3q7 0.2 7-0.8t1-1 1.2 1q0.3 1 0.6 0 0.2-1 1.7-1.2l1.5-0.3 1.5-0.3 1.5-0.2-0.2 2.5-0.3 2.5-0.5-1q-0.5-1-2.2-0.2l-1.8 0.7 1.5 0.5 1.5 0.5 2 0.5q2 0.5 2.5-0.8 0.5-1.2 1.5-1.2t1.5 1.2q0.5 1.3-0.5 1.8t1 1.2q2 0.8 2-0.2t1.2-0.5q1.3 0.5 1.6-0.5 0.2-1 1.7-1.2 1.5-0.3 0.5-0.6-1-0.2-1-1.2t1.5-1 1.5-1v-1h2.2q2.3 0 1.6 0.8-0.8 0.7 0.7 1.2t9.3 0.2q7.7-0.2 7.4-1.4-0.2-1.3 4.3-1 4.5 0.2 4.5 1.2t1.5 1 1.5-1 13-1.5 13 1.3q0 1.7 4.5 0.2t16.5-1.8q12-0.2 12.5-2.7t1.7-3q1.3-0.5 2 0.7 0.8 1.3 2.3 0.8t0.7-1.2q-0.7-0.8-0.4-1.8 0.2-1 3.7-1t3.5 1-1 1.2q-1 0.3 1.5 0 2.5-0.2 2.5-1.2t3-0.2q3 0.7 4.5 1.2t2.5 0.2q1-0.2 0.5 2-0.5 2.3 1.5 2.3t1-0.3q-1-0.2-1-1.2t2.5-0.5 2.5 3 1.5 2.5 2-0.8q0.5-0.7 8-0.4 7.5 0.2 7.5 2 0 1.7-6.5 1.2t-7 0 11.5 2 14.5 2 5.5 0.5 0.5-1 2-0.7q4.5 0.2 4.7 1.2 0.3 1 0.6 0 0.2-1 1.7-1t1.5 1.5 2.5 1.5 3 1.2q0.5 1.3 2 1.8t0 1 2 0 2.7-1.2q-0.7-0.8-0.4-1.8 0.2-1 1.4-1.5 1.3-0.5 1.6-1.5 0.2-1 3.2 0t3 0 1.5-1 1.5 1 5 1 5-1 1-1 1 1.5-1 1.7q-1 0.3 7.8 1.6 8.7 1.2 9 4.2 0.2 3-1.8 3t-0.8 5q1.3 5 1.6 3.5 0.2-1.5 2-2 1.7-0.5 2 0.5 0.2 1-1.3 1t-1.5 1 3 1 3-2 2.8-1.5q2.7 0.5 3 2 0.2 1.5 1.7 1.5t2 1.2q0.5 1.3 1.5 1.6 1 0.2 1.2 1.2 0.3 1 0.6 0 0.2-1 1.2-1t1 1 3 1 3 2 5 2.2q5 0.3 5.8 1 0.7 0.8 1-0.7 0.2-1.5 1.4-2 1.3-0.5 1-1.3-0.2-0.7-2.7-1-2.5-0.2-2.5-1.2t3.5-1 3.7 1q0.3 1 0.6 0 0.2-1 5.2-2t5.2 0q0.3 1 0.6-0.5 0.2-1.5-4.3-1.5t-5-2 5-2 5.5 1.5 1 1.5 1.8 4.5q0.7 4.5 2 5 1.2 0.5 3.2 2.7 2 2.3 4 2.3t0.5-0.5 0.5-0.8q2-0.2 2 1.3t-1 1.7q-1 0.3 4.2 0.6 5.3 0.2 5.6 1.2 0.2 1-1.8 1.2-2 0.3 2.8 2 4.7 1.8 6.4 4.6 1.8 2.7 2.8 7.4 1 4.8 8 6 7 1.3 14 0.3t4.5-1.3q-2.5-0.2-2.3-1.7 0.3-1.5 0.6-0.5 0.2 1 2.7 1t2.5-1 1.5-1 2 2.5 1.5 2.7q1 0.3 0 0.6-1 0.2-1 4.2t1 4.2q1 0.3-0.5 0.6-1.5 0.2-2 2.7t0.5 2.5 1.8 1.5q0.7 1.5 0.4 0.3-0.2-1.3 3-0.6 3.3 0.8 4 0 0.8-0.7 1.8-0.2t0 1 1.5 0.8q2.5 0.2 2.5-0.8t-1-1.2q-1-0.3 0.5-0.6 1.5-0.2 1.5 0.8t6 1.2q6 0.3 6 0.6zm-266.5-90.8q1.5-0.5 4.5 0.2 3 0.8 3 1.8t-4.5-0.2q-4.5-1.3-3-1.8zm22.7 6.8q-0.2-0.3 0-0.6 0.3-0.2 0.3 0.3t-0.3 0.3zm-179 6q-0.2-0.3 0-0.6 0.3-0.2 0.3 0.3t-0.3 0.3zm195 1q-0.2-0.3 0-0.6 0.3-0.2 0.3 0.3t-0.3 0.3zm39.8 2.2q1-0.5 5.5-0.5t1.5 0.5-5.5 0.5-1.5-0.5zm31.2 4.8q-0.2-0.3 0.8-0.6 1-0.2 0.8 1.3-0.3 1.5-0.8 0.5t-0.8-1.2zm-325.7 4.4q1.5 0.3-0.5 1.3t-1.5-0.3q0.5-1.2 2-1zm344.7 12.6q-0.2-0.3 0-0.6 0.3-0.2 0.3 0.3t-0.3 0.3zm2.3 2q-0.5-1.3 3.5 0.2t2.8 2.2q-1.3 0.8-1.6-0.2-0.2-1-2.2-1t-2.5-1.2zm18.7 5q-0.2-0.3 0-0.6 0.3-0.2 0.3 0.3t-0.3 0.3zm87 27.7q-0.2-1.5 0.8-1.5t0.8 2.5q-0.3 2.5-0.8 1.5t-0.8-2.5zm6.8 18.5q1 0 0.5 1.2-0.5 1.3-1 0-0.5-1.2 0.5-1.2zm-533.8 1.8q-0.2-0.3-5.6843e-14 -0.6 0.3-0.2 0.3 0.3t-0.3 0.3zm-33 7q-0.2-0.3 0-0.6 0.3-0.2 0.3 0.3t-0.3 0.3zm-7 4q-0.2-0.3 0-0.6 0.3-0.2 0.3 0.3t-0.3 0.3zm-30 46.4q0.3-0.2 0.6 0 0.2 0.3-0.3 0.3t-0.3-0.3z"
       fill="#191919"
       stroke="#191919"
       id="path4" />
    <path
       d="m726.5 103.5l1.5-1 4.5-0.3 4.5-0.2h0.2q0.3 0 2 0.8 1.8 0.7 8.6 7.4 6.7 6.8 7.4 12.8 0.8 6-0.7 6.2-1.5 0.3-7 4.8t-9.3 6.2q-3.7 1.8-6.4 2.3-2.8 0.5-3-0.5-0.3-1-3-1.5l-2.8-0.5 0.2 1 0.3 1 0.5 1q0.5 1 0.2 4-0.2 3-1.7 3.2l-1.5 0.3-2 0.5-2 0.5 0.2 0.3 0.3 0.2 0.3 0.2 0.2 0.3 0.2 0.3 0.3 0.2 0.3 0.2 0.2 0.3 1.5 0.5 1.5 0.5 5.2-0.7q5.3-0.8 7-1.6 1.8-0.7 3.3 0.3t2.5-0.5 5-3.5 5.5-2.7q1.5-0.8 1.7-1.8l0.3-1 0.3-0.2 0.2-0.3 0.2-0.3 0.3-0.2 0.3-0.2 0.2-0.3 0.2-0.3 0.3-0.2 0.3-0.2 0.2-0.3 0.2-0.3 0.3-0.2 0.3-0.2 0.2-0.3 0.2-0.3 0.3-0.2 0.3 0.2 0.2 0.3 0.2 0.3 0.3 0.2 0.5 5 0.5 5 0.3 1.5q0.2 1.5 1.2 1.3l1-0.3 0.2-0.3 0.3-0.2v-1l-0.3-0.2-0.2-0.3 0.2-0.3 0.3-0.2 1.3-4.5q1.2-4.5 2.2-4.5t2-2.2q1-2.3 1.5-2.6l0.5-0.2-1.5 5.8q-1.5 5.7-2.3 8.4-0.7 2.8-0.4 4.3 0.2 1.5 2.4 3 2.3 1.5 2.3 3t0 2.5v1l-0.3 0.2q-0.2 0.3-0.4 0.6l-0.3 0.2-0.3 1-0.2 1-1 0.2-1 0.3-1 0.5-1 0.5-2 0.5q-2 0.5-5.5 1.2-3.5 0.8-3.7-0.7-0.3-1.5-1.6-2-1.2-0.5-1.2-1.5v-1l-1.5-0.2-1.5-0.3-0.2-0.3-0.3-0.2-0.3-0.2-0.2-0.3-0.2-0.3-0.3-0.2-0.3-0.2-0.2-0.3-0.2-0.3-0.3-0.2v2l0.3 0.2 0.2 0.3 0.2 0.3 0.3 0.2 0.3 0.2 0.2 0.3 0.2 0.3 0.3 0.2 0.5 1 0.5 1 0.3 1.5q0.2 1.5 2.2 1.7l2 0.3 0.2 0.3 0.3 0.2 0.3 0.2 0.2 0.3 0.2 0.3 0.3 0.2 0.3 0.2 0.2 0.3 0.2 0.3 0.3 0.2 1.3 0.5q1.2 0.5 1.2 1.5t-1 0.8q-1-0.3-1.2-0.6l-0.3-0.2-0.3-0.2-0.2-0.3-1.5-0.5-1.5-0.5h-1q-1 0-4 0h-3l-0.2 0.3-0.3 0.2-0.3 1-0.2 1h-2l0.2 2 0.3 2 0.5 1 0.5 1 0.5 1 0.5 1 0.3 1 0.2 1 4.5 0.8q4.5 0.7 6.5 1.2l2 0.5 1 0.5 1 0.5 0.2 0.3 0.3 0.2 0.3 0.2 0.2 0.3 0.2 0.3 0.3 0.2 0.3 0.2 0.2 0.3 0.2 0.3 0.3 0.2v3q0 3-0.7 1.5-0.8-1.5-1.8-1.7l-1-0.3-1.5-0.5-1.5-0.5-0.2-0.3q-0.3-0.2-11 1.6-10.8 1.7-16.8 2.4-6 0.8-7.2 6.3-1.3 5.5 0.7 11.5l2 6 0.5 2 0.5 2v1l-0.3 0.2-0.2 0.3h2l2-0.3 2-0.2 0.2-10q0.3-10 1.6-11.2 1.2-1.3 9.2-1.8t10-1 3 0l1 0.5 0.2 0.3 0.3 0.2 0.3 0.2 0.2 0.3 0.8 3.7q0.7 3.8 0.4 11.8l-0.2 8 1 0.2q1 0.3 13.5 0.6l12.5 0.2v1q0 1-4 1.8-4 0.7-7.5 2l-3.5 1.2-0.2 1-0.3 1-0.3 0.2-0.2 0.3-1 0.3-1 0.2-0.2 1.5-0.3 1.5-0.3 2-0.2 2 3.5-0.5q3.5-0.5 4.7 2 1.3 2.5 1.8 6t0.8 4.5l0.2 1 1-0.2 1-0.3 0.2-0.3 0.3-0.2 0.5-1q0.5-1 0.8-1.2l0.2-0.3h2l0.2 0.3 0.3 0.2v1l-0.3 0.2-0.2 0.3-0.2 0.3-0.3 0.2-0.3 0.2-0.2 0.3-0.2 0.3-0.3 0.2-0.3 0.2-0.2 0.3-0.2 0.3-0.3 0.2-0.3 0.2-0.2 0.3-3.5 0.5q-3.5 0.5-3.7 0.8-0.3 0.2 0.7 3.2t-3 3.5l-4 0.5-0.3 0.2-0.2 0.3 0.2 0.3 0.3 0.2 0.3 0.2 0.2 0.3 2 1q2 1 1 1.5t-1.2 0.8l-0.3 0.2v4l-0.3-0.2-0.2-0.3-1.5-0.5-1.5-0.5-0.2-0.3-0.3-0.2-0.3 0.2q-0.2 0.3-1.2 0.6-1 0.2-1 1.2v1l-1.5-0.2q-1.5-0.3-2.5-0.3t-1.2 1.3q-0.3 1.2-1.3 3.2t-4.7 3.2q-3.8 1.3-4.3 4.3l-0.5 3-1 0.5-1 0.5h-2l0.2-0.3 0.3-0.2 0.3-1 0.2-1-1-0.2-1-0.3-1.5-0.5q-1.5-0.5-2.5-0.8-1-0.2-1.5-1.4l-0.5-1.3-0.2-0.3q-0.3-0.2-0.8-0.7l-0.5-0.5-0.3-0.2-0.2-0.3-0.2-0.3-0.3-0.2v1q0 1 0.7 3.5 0.8 2.5-0.2 2.7-1 0.3-1 1.8t-5.5 2.2q-5.5 0.8-5.5 3.8t-1.5 3-1.7 1.5l-0.3 1.5-0.3 0.2-0.2 0.3-1.5 0.3q-1.5 0.2-1.5-1.3t-1-1.5-1.2-1l-0.3-1-0.3 0.2-0.2 0.3-0.2 0.3-0.3 0.2-0.3 0.2-0.2 0.3 0.2 0.3 0.3 0.2 0.3 0.2 0.2 0.3-1 0.5-1 0.5-0.2 0.3-0.3 0.2v3l0.5 1 0.5 1 0.3 1 0.2 1 2-0.2q2-0.3 3.5-0.3h1.5l1 0.5 1 0.5 0.2 0.3 0.3 0.2 0.3 0.2 0.2 0.3-1 0.5-1 0.5-1.5 0.5-1.5 0.5-0.2 0.3-0.3 0.2-0.3 0.2-0.2 0.3 0.2 0.3 0.3 0.2 0.5 1 0.5 1 0.3 0.2 0.2 0.3 0.2 0.3 0.3 0.2v3l-0.3 0.2-0.2 0.3h-2q-2 0-12 0.7-10 0.8-10.5 4-0.5 3.3-5 2l-4.5-1.2 0.2 3q0.3 3 0 3.2l-0.2 0.3-0.2 0.3-0.3 0.2-0.3 0.2-0.2 0.3-0.2 0.3-0.3 0.2-0.3 0.2-0.2 0.3-1 0.3-1 0.2 0.2 1.5 0.3 1.5 0.3 0.2 0.2 0.3 1 0.3 1 0.2v2l4.5-1.5q4.5-1.5 4.5-0.5t3.5 1.2l3.5 0.3 0.2 0.3 0.3 0.2 0.3 0.2 0.2 0.3 1 0.3 1 0.2-0.2 1-0.3 1-0.7 1.2q-0.8 1.3-3.3 1.6-2.5 0.2-3 3.2t0.5 3 1.2 1q0.3 1 0.6 2.5l0.2 1.5-1 0.2-1 0.3h-2q-2 0-2-2.3 0-2.2-1-2.4l-1-0.3h-3l-0.2 0.3-0.3 0.2-0.5 2-0.5 2-0.3 1-0.2 1h2.5q2.5 0 2.5 1t1.8 1.5q1.7 0.5 2.2 3t3 4 2.2 2.7q-0.2 1.3-1.4 2-1.3 0.8-1.3 1.8v1l-0.3 1-0.2 1h1.8q1.7 0 4-0.5 2.2-0.5 2.4 2.5 0.3 3 0.8 4.5l0.5 1.5 0.3 0.2 0.2 0.3 0.2 0.3 0.3 0.2 0.3-0.2 0.2-0.3 3-2q3-2 6-1.5l3 0.5-0.2 0.3-0.3 0.2-0.3 0.2-0.2 0.3 0.2 0.3 0.3 0.2v4l0.5 1 0.5 1 0.3 0.2 0.2 0.3 1 0.5 1 0.5-0.2 0.3-0.3 0.2-0.3 0.2-0.2 0.3-1 0.5-1 0.5-0.2 0.3-0.3 0.2-0.3 0.2-0.2 0.3v0.5h-74v-0.5l-4.5-0.5-4.5-0.5-8-0.3q-8-0.2-8.8-3.2-0.7-3-1.4-32-0.8-29-1.8-29t-0.2-3.5q0.7-3.5-0.3-4.5t-0.3-5q0.8-4-1.2-3.5t-2.5-9.5-2.7-9q-2.3 1-3.8-1.5t-3.2-3.3q-1.8-0.7-2.3-2.4-0.5-1.8-3-1-2.5 0.7-11.5 0.7t-13.5-1-7 1-4.7 1.3q-2.3-0.8-4-0.8h-1.8l0.2 2.5q0.3 2.5 0.6 3.5l0.2 1h-2v-4l-1-0.2q-1-0.3-2-0.6-1-0.2-1-1.2t-1-1-1-1-2-0.2q-2 0.7-2.5 0-0.5-0.8-1.5-1-1-0.3 0-3.6l1-3.2-2 0.2q-2 0.3-3 1.3l-1 1-0.2 0.3-0.3 0.2-0.3-0.2-0.2-0.3-0.2-0.3-0.3-0.2-0.3-2-0.2-2 0.8-0.5q0.7-0.5 1-1l0.2-0.5h0.2q0.3 0 0.3-1v-1l-0.3-0.2-0.2-0.3 0.2-0.3 0.3-0.2 0.3-0.2 0.2-0.3h-2l-0.2 0.3q-0.3 0.2-0.6 1.2-0.2 1-3.2 0.2l-3-0.7-0.2-0.3-0.3-0.2-0.3-1.5-0.2-1.5h2l0.2-1 0.3-1v-1l-0.3-0.2-0.2-0.3-0.2-0.3-0.3-0.2-0.3-0.2-0.2-0.3-0.2-0.3-0.3-0.2v-2l0.3-0.2 0.2-0.3 0.2-0.3 0.3-0.2 1.7-1.8q1.8-1.7 4.3-2 2.5-0.2 2.5 0.8t1 0.8l1-0.3 0.2-0.3 0.3-0.2 0.3 0.2 0.2 0.3h2l0.2-0.3 0.3-0.2 0.3-1.5 0.2-1.5-1-0.2q-1-0.3-3.5-1.8l-2.5-1.5-0.2-0.3-0.3-0.2-0.3-0.2-0.2-0.3 0.2-0.3 0.3-0.2 0.3-0.2 0.2-0.3 0.2-0.3 0.3-0.2 0.3 0.2 0.2 0.3 0.2 0.3 0.3 0.2 0.3-0.2 0.2-0.3 0.2-0.3 0.3-0.2 0.5-1 0.5-1v-1l-0.3-0.2-0.2-0.3h2l0.2 0.3 0.3 0.2-0.5 1q-0.5 1-0.8 2.5l-0.2 1.5 1 0.2 1 0.3 1 0.5 1 0.5 0.2 0.3 0.3 0.2 0.5-1 0.5-1v-1l-0.3-0.2-0.2-0.3-0.2-0.3-0.3-0.2-0.3-0.2-0.2-0.3-0.2-0.3-0.3-0.2-0.3-0.2-0.2-0.3 0.2-0.3 0.3-0.2 0.3-0.2 0.2-0.3 0.2-0.3 0.3-0.2 0.3-0.2 0.2-0.3 1-0.5 1-0.5 0.2-0.3 0.3-0.2v-2l-0.3-0.2-0.2-0.3-3-0.5q-3-0.5-3.5-1l-0.5-0.5-1-0.3-1-0.2v-3l1.5-0.2 1.5-0.3 0.2-0.3 0.3-0.2 0.3 0.2 0.2 0.3 2.5-0.5q2.5-0.5 10.5-1.5t18.5-2.5 11.5-2 9-1l8-0.5 3-0.5 3-0.5-0.2-0.3-0.3-0.2-0.3-1-0.2-1-2.5-0.2q-2.5-0.3-4-3.6l-1.5-3.2-0.2-1q-0.3-1-0.6-1h-0.2l-0.2-1q-0.3-1-0.6-1h-0.2l-0.2-1.5-0.3-1.5-0.3-1.5q-0.2-1.5-1.2-1.7-1-0.3-3-3-2-2.8-3-3-1-0.3-2.5-3-1.5-2.8-2.5-3-1-0.3-3-4.3t-3.2-7.7q-1.3-3.8-1.8-9.8l-0.5-6-0.3-0.2-0.2-0.3h-2q-2 0-2.5 0.5t-12.5-0.2l-12-0.8-0.2-1.5-0.3-1.5-0.3-0.2-0.2-0.3 0.2-0.3 0.3-0.2 0.3-0.2 0.2-0.3 0.2-0.3 0.3-0.2 0.3-0.2 0.2-0.3 0.2-0.3 0.3-0.2 0.3-0.2 0.2-0.3 5.5 0.3q5.5 0.2 5.3-2.8l-0.3-3v-2l0.3 0.2 0.2 0.3 1 0.3 1 0.2 0.2 1 0.3 1 0.3 1q0.2 1 1.7 1.8 1.5 0.7 0.5 1.2t0.5 1.5 10.5 0 16.5-10 8.5-9.5 2-1l1-0.5 0.2-0.3 0.3-0.2 0.5-1 0.5-1 0.3-2.5 0.2-2.5-1-0.2-1-0.3-1-0.5-1-0.5-1-0.5q-1-0.5-3-0.5h-2l-1.5 0.5-1.5 0.5-1 0.5-1 0.5-1 0.3-1 0.2v-2l1-0.2 1-0.3 0.2-0.3 0.3-0.2 0.3-0.2 0.2-0.3 1-0.5 1-0.5 8-0.3q8-0.2 10.2 3.3 2.3 3.5 3.6 12 1.2 8.5 0.2 8.5t-1-1-1-1h-1l0.2 1 0.3 1 0.3 0.2 0.2 0.3 0.2 0.3 0.3 0.2 1.3 2.5q1.2 2.5 4.7 5.7 3.5 3.3 7 3.6 3.5 0.2 4.5-2 1-2.3 7.5-7 6.5-4.8 7-6.6 0.5-1.7 3.3-2.4 2.7-0.8 2-2.3-0.8-1.5 2.2-1t3-0.5v-1l1-0.2 1-0.3 0.2-0.3 0.3-0.2v-4l-0.3-0.2-0.2-0.3-0.2-0.3-0.3-0.2-0.3-0.2q-0.2-0.3-0.4-1-0.3-0.8-1-1-0.8-0.3-3.3-1.3l-2.5-1-0.2-0.3-0.3-0.2-0.3-0.2-0.2-0.3-1-0.3-1-0.2 0.2-1 0.3-1 0.3 0.2 0.2 0.3h2l1-0.3 1-0.2v3l7.5 0.2q7.5 0.3 12.5-0.2l5-0.5-0.2-0.3-0.3-0.2-0.3-0.2-0.2-0.3 1.5-0.5 1.5-0.5h-19l-0.2-0.3-0.3-0.2-0.3-0.2-0.2-0.3 3.5-0.5 3.5-0.5 4.8-1.3q4.7-1.2 8.2-2.2t3.5-5.5 0.5-4 1-1.5l0.5-2 0.3-0.2 0.2-0.3h2l1.5 0.5 1.5 0.5 1 0.5 1 0.5-0.2 0.3-0.3 0.2-0.3 0.2-0.2 0.3-0.2 0.3-0.3 0.2 1 7.5q1 7.5 2.7 12.3 1.8 4.7 7.8 5.2t12 0l6-0.5 0.2-0.3 0.3-0.2 0.3-0.2 0.2-0.3 0.2-0.3 0.3-0.2v-3l-0.3-0.2-0.2-0.3-1-0.5-1-0.5 0.2-0.3 0.3-0.2v-1l-0.5-1q-0.5-1-5-5.5l-4.5-4.5-0.3-0.2-0.2-0.3-0.2-0.3-0.3-0.2-0.3-0.2-0.2-0.3-0.2-0.3-0.3-0.2-0.3-0.2-0.2-0.3-0.2-0.3-0.3-0.2-0.3-1.5-0.2-1.5h2l0.2-1 0.3-1 0.3 0.2 0.2 0.3 1 0.5 1 0.5 0.2 0.3 0.3 0.2 0.5 1 0.5 1 0.3 0.2 0.2 0.3 6.8 5.3q6.7 5.2 11 8.4 4.2 3.3 6.2 4.3t6.2-0.7q4.3-1.8 7-4 2.8-2.3 6.8-3.3t4.2-1.3l0.3-0.2v-3l-0.3-0.2q-0.2-0.3-1-3.6-0.7-3.2-2.7-5.7t-6.7-6.3q-4.8-3.7-9.3-4.2l-4.5-0.5-0.2 0.3-0.3 0.2-0.3 0.2q-0.2 0.3-0.7 0.8t-2 0 0-1.5zm-151.3 174.3l-0.2-0.3h-3l-0.2 0.3-0.3 0.2-0.3-0.2-0.2-0.3-1-0.5-1-0.5-0.2-0.3q-0.3-0.2-0.3-4.7v-4.5l3.3-3.2q3.2-3.3 6.2-2.8t4.2 1.2q1.3 0.8 1.3 6.8t-1.7 7.8q-1.8 1.7-4 1.4-2.3-0.2-2.6-0.4zm176-9l-0.2-0.3h3l-0.2 0.3-0.3 0.2-0.3 1-0.2 1 3.2 0.5q3.3 0.5 3.3 1t-0.5 1.5l-0.5 1-0.5-1-0.5-1-0.3-0.2q-0.2-0.3-2.7-0.8l-2.5-0.5-0.2-0.3-0.3-0.2-0.3-0.2-0.2-0.3 0.2-0.3 0.3-0.2v-1l-0.3-0.2zm-226.2 1.2q0-1 2.2-0.5 2.3 0.5 0 1-2.2 0.5-2.2-0.5zm207.8 11.8l0.2-0.3 0.2-0.3 0.3-0.2 0.3 0.2 0.2 0.3 0.2 0.3 0.3 0.2v1l-0.3 0.2-0.2 0.3-1 0.3q-1 0.2-0.8-0.8l0.3-1 0.3-0.2z"
       fill="#241a1a"
       stroke="#241a1a"
       id="path6" />
    <path
       d="m196 440.2v-0.2l135 0.8q135 0.7 140.5 1.2t7.5 0.8l2 0.2-4 0.5q-4 0.5-4.2 47.5-0.3 47 0.2 59.5l0.5 12.5 0.3 0.2 0.2 0.3h1l0.2-0.3q0.3-0.2 0.8-1.2t1.2-1.2l0.8-0.3 1.5-0.7q1.5-0.8 0.5 2.4-1 3.3-2.5 3.6-1.5 0.2-1.5 2.4 0 2.3 1.8 3.6 1.7 1.2 0 2.2-1.8 1-1.8 2.5t0.8 2q0.7 0.5 0.4 0.7l-0.2 0.3-0.2 0.3-0.3 0.2-0.3 0.2-0.2 0.3 0.2 0.3 0.3 0.2 0.3 0.2 0.2 0.3-0.2 0.3-0.3 0.2v2l0.3 0.2 0.2 0.3h5l-0.2-0.3-0.3-0.2-0.3-2q-0.2-2 2.8-2.8l3-0.7h5l0.2 0.3 0.3 0.2-0.3 1.2q-0.2 1.3-1.2 1.6-1 0.2-1 2.2t1.5 1.8l1.5-0.3h3v-1q0-1 3.8-1.7 3.7-0.8 4-2.8 0.2-2 5-3.5 4.7-1.5 5.2-2.5t0.8 1.8q0.2 2.7 1.2 4.7t6 2.7q5 0.8 4.8 2.8-0.3 2 0.2 3.5l0.5 1.5 0.5 1 0.5 1 0.3 0.2 0.2 0.3 1 0.3 1 0.2 0.2-1 0.3-1 0.3-0.2 0.2-0.3-0.2-0.3q-0.3-0.2-1-2.7l-0.8-2.5 2 0.2 2 0.3 0.2 0.3 0.3 0.2 0.7 1.8q0.8 1.7 3.6 2 2.7 0.2 3.7 1.7t1.5 2.5l0.5 1 0.3 0.2 0.2 0.3h4l-1.2-1.7q-1.3-1.8-0.6-2 0.8-0.3 7.3-0.3t8-0.7q1.5-0.8 1.5-1.8t3-0.2q3 0.7 4 0.2t-0.5-1 3 0 7.5 0.5 4.8-0.7q1.7-0.8 1.4-2-0.2-1.3 1.3-1.3h1.5l0.2 0.3 0.3 0.2v3l-0.3 0.2-0.2 0.3 2 0.5 2 0.5 0.2 0.3 0.3 0.2 0.3 1 0.2 1h-3.5q-3.5 0-2.3 3.5 1.3 3.5 1.6 4.5l0.2 1-1-0.2q-1-0.3-1.5-0.8t-4 0.5l-3.5 1-0.2 0.3-0.3 0.2-0.3 0.2-0.2 0.3-0.2 0.3-0.3 0.2-0.3 0.2-0.2 0.3-0.2 0.3-0.3 0.2-0.3 1-0.2 1 1-0.2 1-0.3 0.2-0.3 0.3-0.2 1.7 0.2q1.8 0.3 1.6 2-0.3 1.8-0.3 4.3t1.3 4.3q1.2 1.7 0.2 2-1 0.2-1 1.2t-1.2 1.5q-1.3 0.5-1 3.7 0.2 3.3 2.2 4 2 0.8 1.5 3-0.5 2.3-3.5 4-3 1.8-4.5 5.6-1.5 3.7-3.5 6.4-2 2.8-1 2.8t1 1-2 0.8q-2-0.3-3 0.2l-1 0.5 1.5 0.5 1.5 0.5-0.2 0.3-0.3 0.2-0.3 1q-0.2 1 0.8 0.8 1-0.3 2-0.3h1l0.2 0.3 0.3 0.2 0.3 0.2 0.2 0.3 0.2 0.3 0.3 0.2 0.3 0.2 0.2 0.3-0.2 0.3-0.3 0.2-0.3 0.2-0.2 0.3-0.2 0.3-0.3 0.2-0.3 0.2-0.2 0.3-1.5 0.3q-1.5 0.2-1.5 1.2t-3 1.8l-3 0.7-1 0.5-1 0.5 1 0.5 1 0.5-1.5 0.5-1.5 0.5v0.5l-6-0.2q-6-0.3-8-0.3t-21 0.7q-19 0.8-19 2.3t-42.5 2-43.7 5l-1.3 4.5-0.3 0.2-0.2 0.3-0.5 0.3-0.5 0.2-0.5-0.2q-0.5-0.3-2-0.3t-4.7 2.3l-3.3 2.2-0.3 0.2-0.2 0.3-0.2 1.7q-0.3 1.8 1.2 1.8t1.8 1l0.2 1-1 0.2-1 0.3-3 0.5q-3 0.5-5.5 0.5t-3 1.3q-0.5 1.2-1.5 1-1-0.3-1.8-2-0.7-1.8-3.4-2.3-2.8-0.5-3 0.5-0.3 1-2 1.8-1.8 0.7-5.8 0.7t-6.8-3.7q-2.7-3.8-3.4-6.8-0.8-3-2.8-3.2-2-0.3-2.2-2.6-0.3-2.2-3.6-2.4-3.2-0.3-5-1.6-1.7-1.2-1-2 0.8-0.7 0.3-1.2t-11-3-23-2.5-21.5 3.5-14.5 7-12.3 11.8q-6.7 8.2-10.7 21.2l-4 13-0.5-1q-0.5-1-1-3l-0.5-2-1 4q-1 4-1.3 4.5l-0.2 0.5-15.5-0.2q-15.5-0.3-16-8.6l-0.5-8.2-5 0.2q-5 0.3-17.5 1.3l-12.5 1-2 0.3-2 0.2v-0.5l1.5-0.5 1.5-0.5 2-0.3 2-0.2-0.2-1q-0.3-1-2-1.8-1.8-0.7-0.3-1.2t1.7-2.2q0.3-1.8-4.4-16.3-4.8-14.5-6.8-14.7-2-0.3-1-0.6 1-0.2-0.5-4.2l-1.5-4-0.2-1.5-0.3-1.5-0.3 0.2-0.2 0.3-1 0.3-1 0.2 0.2-1 0.3-1v-3l-1.3 0.5q-1.2 0.5-1.4 2-0.3 1.5-0.6 1.7l-0.2 0.3h-1l-0.2-0.3-0.3-0.2-0.3-0.2-0.2-0.3 0.2-0.3 0.3-0.2v-10l-0.3-1-0.2-1h2l0.2 2.5 0.3 2.5 0.5 1.5 0.5 1.5 0.3-0.2 0.2-0.3 0.2-0.3 0.3-0.2 0.3-1.5 0.2-1.5h-2l-0.2-2.5q-0.3-2.5-2-9-1.8-6.5-2.8-6.5t-1.5-4-1.5-4-1.8-4.5q-0.7-4.5-3-2.5l-2.2 2 0.2-1 0.3-1 0.5-1q0.5-1 0.8-1.2 0.2-0.3-0.3-4.3t-2-8-1.5-5.3v-1.2h0.5l0.5-1 0.5-1 0.3-0.2 0.2-0.3-0.2-0.3-0.3-0.2-0.5-2.5q-0.5-2.5-1-6.5t2.2-4.8q2.8-0.7 3.3-2 0.5-1.2 1.5-1.2t1.5-4 2.3-4q1.7 0 6-1.5 4.2-1.5 4.4 0.5l0.3 2 0.3 0.2 0.2 0.3 1.5 0.3 1.5 0.2-0.2-2-0.3-2-0.3-1q-0.2-1-1.2-1.2-1-0.3-2-2-1-1.8 0-1.8t0.8-2.5q-0.3-2.5-18.8-58l-18.5-55.5-0.3-1-0.2-1 2-0.2 2-0.3 23.5-1q23.5-1 27.5-1.5l4-0.5v-0.3zm-27.8 216q0.3-0.2 0.6 0 0.2 0.3-0.3 0.3t-0.3-0.3z"
       fill="#311c1c"
       stroke="#311c1c"
       id="path8" />
    <path
       d="m821.5 408.8l0.5 0.2-2 9.5q-2 9.5-3 9.5t-1.2 3q-0.3 3 0.4 5 0.8 2-0.7 2t-1.7-3q-0.3-3-1 1.5-0.8 4.5-1.8 4.5t-1.5 4-1.5 4-1.5 4.5-1.5 4.5-3 8.5-3 8.5-5 12.8q-4 12.7-7.5 23.7t-4.7 17.7q-1.3 6.8-1.8 4.3t-0.8 3.5q-0.2 6-1.2 6t-1.2-2q-0.3-2-1.6 2.8-1.2 4.7-3.7 13-2.5 8.2-3.5 8.2t-1.5 4.5-1.5 4.5-2.8 6.5q-1.7 6.5-2 6.5h-0.2v-1q0-1-1-1t-1.8 2.5q-0.7 2.5-5.4 3.3-4.8 0.7-7 4.4l-2.3 3.8-0.3-0.2q-0.2-0.3-6.2-3-6-2.8-6-4.8t-3.5-2h-3.5l-0.2 1-0.3 1-0.5 2q-0.5 2-7.2 21-6.8 19-7.8 19t-1.5 3-1.5 3.2q-1 0.3-2 5-1 4.8-2 4.8t-1.8 3.5q-0.7 3.5-1.4 4-0.8 0.5-1.3 3.5t-1.5 3-1 1-1.5 1.2q-1.5 0.3-7.5-0.2t-8 0-21 1.2l-19 0.8-10-0.2q-10-0.3-22.5-0.3t-17.5 1.7l-5 1.8v-0.2q0-0.3-2.5-0.3t-2-0.5-7-0.8l-7.5-0.2v-0.5l1.5-0.5 1.5-0.5-1-0.5-1-0.5 1-0.5 1-0.5 3-0.7q3-0.8 3-1.8t1.5-1.2l1.5-0.3 0.2-0.3 0.3-0.2 0.3-0.2 0.2-0.3 0.2-0.3 0.3-0.2 0.3-0.2 0.2-0.3-0.2-0.3-0.3-0.2-0.3-0.2-0.2-0.3-0.2-0.3-0.3-0.2-0.3-0.2-0.2-0.3h-1q-1 0-2 0.3-1 0.2-0.8-0.8l0.3-1 0.3-0.2 0.2-0.3-1.5-0.5-1.5-0.5 1-0.5q1-0.5 2-0.8 1-0.2 1.2-1.7 0.3-1.5 2-3.3 1.8-1.7 3.3-5.4 1.5-3.8 4.5-5.6 3-1.7 3.5-4 0.5-2.2-1.5-3-2-0.7-2.2-4-0.3-3.2 1-3.7 1.2-0.5 1.2-1.5t1-1.2q1-0.3-0.2-2-1.3-1.8-1.3-4.3t0.3-4.3q0.2-1.7-1.6-2l-1.7-0.2-0.3 0.2-0.2 0.3-1 0.3-1 0.2 0.2-1 0.3-1 0.3-0.2 0.2-0.3 0.2-0.3 0.3-0.2 0.3-0.2 0.2-0.3 0.2-0.3 0.3-0.2 0.3-0.2 0.2-0.3 3.2-1.3q3.3-1.2 3.6-4.7 0.2-3.5 3.7-3.5h3.5l-0.2-1-0.3-1-0.3-0.2-0.2-0.3-2-0.5-2-0.5 0.2-0.3 0.3-0.2v-3l-0.3-0.2-0.2-0.3h-1.5q-1.5 0-1.3 1.3 0.3 1.2-1.4 2-1.8 0.7-4.8 0.7t-7.5-0.5-3 0 0.5 1-4-0.2q-3-0.8-3 0.2t-1.5 1.8q-1.5 0.7-8 0.7t-7.3 0.3q-0.7 0.2 0.6 2l1.2 1.7h-4l-0.2-0.3-0.3-0.2-0.5-1q-0.5-1-1.5-2.5t-3.7-1.7q-2.8-0.3-3.6-2l-0.7-1.8-0.3-0.2-0.2-0.3-2-0.3-2-0.2 0.8 2.5q0.7 2.5 1 2.7l0.2 0.3-0.2 0.3-0.3 0.2-0.3 1-0.2 1-1-0.2-1-0.3-0.2-0.3-0.3-0.2-0.5-1-0.5-1-0.5-1.5q-0.5-1.5-0.2-3.5 0.2-2-4.8-2.8-5-0.7-6-2.7t-6.5-2.3q-5.5-0.2-5.7 1.8-0.3 2-4 2.8-3.8 0.7-3.3 3l0.5 2.2h-2l0.2-1 0.3-1 0.3-0.2 0.2-0.3h-3l-1.5 0.3q-1.5 0.2-1.5-1.8t1-2.2q1-0.3 1.2-1.6l0.3-1.2-0.3-0.2-0.2-0.3h-5l-3 0.7q-3 0.8-2.8 2.8l0.3 2 0.3 0.2 0.2 0.3h-5l-0.2-0.3-0.3-0.2v-2l0.3-0.2 0.2-0.3-0.2-0.3-0.3-0.2-0.3-0.2-0.2-0.3 0.2-0.3 0.3-0.2 0.3-0.2 0.2-0.3 0.2-0.3q0.3-0.2-0.4-0.7-0.8-0.5-0.8-2t1.8-2.5q1.7-1 0-2.2-1.8-1.3-1.8-3.6 0-2.2 1.5-2.4 1.5-0.3 2-2.6l0.5-2.2-1-0.2-1-0.3-0.8 0.3q-0.7 0.2-1.2 1.2t-0.8 1.2l-0.2 0.3h-1l-0.2-0.3-0.3-0.2-0.5-12.5q-0.5-12.5-0.2-59.5 0.2-47 4.2-47.5l4-0.5 90-0.8q90-0.7 148.5-2.4 58.5-1.8 63.7-15.3 5.3-13.5 5.8-15l0.5-1.5h0.5v0.5l1.2-0.3q1.3-0.2 1.6 1.8 0.2 2 1.4 1.5 1.3-0.5 1.6-0.3l0.2 0.3h2l0.2-0.3 0.3-0.2 0.3-0.2 0.2-0.3 0.2-0.3 0.3-0.2 0.7-1.8q0.8-1.7-1.2-2.7t3.5-2.5 11.3-0.8q5.7 0.8 6.4 3.6 0.8 2.7 1.3 3zm-231.3 192.4q0.3-0.2 0.6 0 0.2 0.3-0.3 0.3t-0.3-0.3z"
       fill="#281313"
       stroke="#281313"
       id="path10" />
    <g
       fill="#0a0000"
       stroke="#0a0000"
       id="g16">
      <path
         d="m406 694l3-0.5 1-0.3 1-0.2-0.2-1q-0.3-1-1.8-1t-1.2-1.8l0.2-1.7 0.2-0.3 0.3-0.2 3.3-2.2q3.2-2.3 4.7-2.3t2 0.3l0.5 0.2v0.5l-0.2 0.3-0.3 0.2v5l0.3 0.2 0.2 0.3 3 1.5q3 1.5 6 1.5t4-1.5 3-1.8q2-0.2 3 2 1 2.3 3 2.6 2 0.2 2 1.7t8.5 0.7q8.5-0.7 10-1.4 1.5-0.8 0.5 1.7t6.5 1.7q7.5-0.7 7.5-1.7t1-1.3q1-0.2 1.5 1.6 0.5 1.7 3.5 2 3 0.2 3-0.8t5-0.2q5 0.7 8-0.8t5.5-1.8q2.5-0.2 2.7-1.2 0.3-1 1 1.5 0.8 2.5 2.8 2.5t2-1.5 5-1 5-1 5-2.7q5-1.3 7.5-0.3t3.5 1.3l1 0.2v1.5q0 1.5 2.2 2.5 2.3 1-0.7 13.5t-3.3 14l-0.2 1.5-76 0.2-76 0.3 0.2 0.3 0.3 0.2v7l-0.5 1-0.5 1v5l0.3 1.5 0.2 1.5h3l0.2-2q0.3-2 0.6-2.2l0.2-0.3 0.2-0.3 0.3-0.2 0.3-0.2 0.2-0.3 0.2-0.3 0.3-0.2v8l0.3 0.2 0.2 0.3h-1.5q-1.5 0-3.5-0.3-2-0.2-2.2-1.2l-0.3-1-0.7 6.2q-0.8 6.3 0.2 6.6 1 0.2 1 3.2t-1 3-1 1-2 1.5-2 2.7q0 2.3-1.2 2.6-1.3 0.2-1.6 0.4l-0.2 0.3-0.2 0.3-0.3 0.2-0.3 0.2-0.2 0.3-0.2 0.3-0.3 0.2-0.5 1-0.5 1-0.3 0.2-0.2 0.3h3l-0.2-0.3-0.3-0.2-0.3-0.2-0.2-0.3 0.2-0.3 0.3-0.2 0.7-0.8q0.8-0.7 2.3-1l1.5-0.2-0.2 1.5-0.3 1.5-0.3-0.2-0.2-0.3-0.2-0.3-0.3-0.2v2l0.3 0.2 0.2 0.3 0.2 0.3 0.3 0.2 0.3 0.2 0.2 0.3-1 0.5-1 0.5-0.2 0.3-0.3 0.2-0.3 0.2-0.2 0.3h-2q-1 0-2.5 0t-3.5 1.3q-2 1.2-1.8 0.2 0.3-1-0.2-3l-0.5-2-0.3 0.2-0.2 0.3-0.2 0.3-0.3 0.2-0.3 0.2-0.2 0.3-0.2 0.3-0.3 0.2-0.3 0.2-0.2 0.3-1 0.5-1 0.5-0.2 0.3-0.3 0.2-0.3 1-0.2 1h2v1q0 1-1 1.2l-1 0.3 2.5 0.5q2.5 0.5 2.7 0.8l0.3 0.2 0.3 0.2 0.2 0.3 1 0.5 1 0.5-1 0.3-1 0.2-0.2 1.5-0.3 1.5-0.3-0.2-0.2-0.3-1-0.3-1-0.2 0.2-1 0.3-1 0.3-0.2 0.2-0.3-3-0.3q-3-0.2-3-2.2t-1.5-2h-1.5l0.2 1 0.3 1 0.3 1 0.2 1h-2v-2l-1 0.2-1 0.3-1.5 0.5-1.5 0.5 0.2 0.3 0.3 0.2 0.3 0.2 0.2 0.3 0.2 0.3 0.3 0.2 0.3 0.2 0.2 0.3h1l3-0.3 3-0.2-0.2 1-0.3 1-0.3 0.2-0.2 0.3h-1l-1.5-0.3-1.5-0.2v2l-1-0.2-1-0.3-0.2-0.3q-0.3-0.2-0.6-0.4-0.2-0.3-8.7 0.7t-7.5 1.5-1 1.8q-2 1.2-2 0.2t-11.5-0.8l-11.5 0.3h-1l-1.5-0.3-1.5-0.2 0.2 1 0.3 1 0.3 0.2 0.2 0.3h1q1 0 2.5 0h1.5l-0.2 0.3-0.3 0.2-0.3 0.2-0.2 0.3-0.2 0.3-0.3 0.2-0.3 0.2-0.2 0.3h-4l-0.2-0.3-0.3-0.2-0.3-0.2-0.2-0.3-0.2-0.3-0.3-0.2-0.5 1-0.5 1-0.5-1-0.5-1-0.3-1.5-0.2-1.5h-2v-2l1.5 0.2q1.5 0.3 5 0.3h3.5l-3-0.5-3-0.5-2.5-0.3q-2.5-0.2-2.5-1.2t-1-0.8q-1 0.3-1.5 1.6-0.5 1.2-1.5 1.2t-1-1-2-1-2 1-1 1-1-1v-1h-4v-1q0-1 2-1.2 2-0.3 1-0.6-1-0.2-0.8-1.2l0.3-1v-2l-0.3-0.2-0.2-0.3-1-0.3-1-0.2v2l-1-0.2-1-0.3-0.2-0.3-0.3-0.2-0.3 0.2-0.2 0.3-0.2 0.3-0.3 0.2-0.3 0.2-0.2 0.3 2.5 0.3 2.5 0.2v2l-1-0.2-1-0.3-0.2-0.3-0.3-0.2-0.3 0.2-0.2 0.3-1 0.5-1 0.5-0.2 0.3-0.3 0.2-0.3 0.2-0.2 0.3-1.5 0.3-1.5 0.2-0.2-1-0.3-1-0.3-2.5-0.2-2.5h2v5l1-0.2 1-0.3-0.2-0.3-0.3-0.2v-5l0.3-0.2 0.2-0.3h-3q-1 0-2-0.3-1-0.2-0.8-1.2 0.3-1-0.4-1.2-0.8-0.3-5.3-1.8l-4.5-1.5 0.2-0.3 0.3-0.2 0.3-0.2q0.2-0.3 1.2-0.6 1-0.2-0.2-2.2-1.3-2-0.6-2.5 0.8-0.5 1-1.5 0.3-1 0.8 0.5t0.8-2.5q0.2-4-0.8-4t-3.2-6l-2.3-6-0.3 0.2-0.2 0.3-0.2 0.3-0.3 0.2-0.3 0.2-0.2 0.3v1q0 1-0.2 1.3-0.3 0.2-0.8 1.2l-0.5 1-0.3 0.2-0.2 0.3h-1l-1-0.3-1-0.2v-2l-1-0.2-1-0.3 0.2-0.3 0.3-0.2 0.3-0.2 0.2-0.3 1.2 0.3q1.3 0.2 1 0.4l-0.2 0.3 1 0.3 1 0.2-0.2-2.5-0.3-2.5h-1.5q-1.5 0-1.8 1l-0.2 1h-2l0.2-1.5 0.3-1.5 0.5-1.5 0.5-1.5 0.3 0.2 0.2 0.3h1l0.2-0.3 0.3-0.2 0.7 1.2q0.8 1.3 1.6 0.6 0.7-0.8 1.2 0.7l0.5 1.5v-5l-0.3-2.5-0.2-2.5-0.8 0.5q-0.7 0.5-1.2 2t-0.8 1.7l-0.2 0.3-0.2 0.3-0.3 0.2-0.3-3.5-0.2-3.5h-2l-0.2-1-0.3-1v-2l0.5-1 0.5-1 0.3-0.2 0.2-0.3 1-0.3 1-0.2-0.5 2.2q-0.5 2.3-0.3 2.6l0.3 0.2 0.5 1.5 0.5 1.5 0.3-5.5 0.2-5.5 0.2-0.5q0.3-0.5 1.3-4.5l1-4 0.5 2q0.5 2 1 3l0.5 1 4-13q4-13 10.7-21.2 6.8-8.3 12.3-11.8t14.5-7 21.5-3.5 23 2.5 11 3-0.3 1.2q-0.7 0.8 1 2 1.8 1.3 5 1.6 3.3 0.2 3.6 2.4 0.2 2.3 2.2 2.6 2 0.2 2.8 3.2 0.7 3 3.4 6.8 2.8 3.7 6.8 3.7t5.8-0.7q1.7-0.8 2-1.8 0.2-1 3-0.5 2.7 0.5 3.4 2.3 0.8 1.7 1.8 2 1 0.2 1.5-1 0.5-1.3 3-1.3t5.5-0.5zm-98.5 73l-1.5-0.5-1-0.5-1-0.5-0.2-0.3-0.3-0.2-0.3-0.2-0.2-0.3-0.2-0.3-0.3-0.2-0.3-0.2-0.2-0.3-0.2-0.3-0.3-0.2-0.3-0.2-0.2-0.3 0.2-0.3 0.3-0.2 0.3-0.2q0.2-0.3 2.7-0.8l2.5-0.5-0.2-0.3q-0.3-0.2-0.8-1.7t-3.2-2.5q-2.8-1-2.6-2l0.3-1 0.3-0.2 0.2-0.3-0.2-0.3-0.3-0.2v-2l0.3-1 0.2-1-1 0.2-1 0.3-0.2 0.3-0.3 0.2-0.3 2.2q-0.2 2.3-1.4 2.6-1.3 0.2-1.8 1.2l-0.5 1-0.3-0.2-0.2-0.3-1.5-0.5-1.5-0.5-0.2-0.3-0.3-0.2-0.3-0.2-0.2-0.3-0.2-0.3-0.3-0.2-0.3-0.2-0.2-0.3-2.8-3.7q-2.7-3.8-4.2-10.3t-1-14 2.8-12.7q2.2-5.3 4.2-8.3t3-3.3q1-0.2 4.5-4 3.5-3.7 9.5-6.2t15.5-2.5 17.5 4 12.2 8.3q4.3 4.2 7.3 11.2t3 18-3 17-5.3 9.5q-2.2 3.5-7.7 6.5t-5.5 2-1.5-1-2 1.8q-0.5 1.7-1.5 2.2t-1.8-0.8q-0.7-1.2-1.4 0.6-0.8 1.7-8.3 0.7t-10.5-0.5-4.5 0zm218.7-72.8q0.3-0.2 0.6 0 0.2 0.3-0.3 0.3t-0.3-0.3zm-150.2 68.8q0-1 1-1t1 1-1 1-1-1zm-108.2 8q0.7-3 1-2 0.2 1 1.2 1t3.5 3.2q2.5 3.3 0.3 2-2.3-1.2-3.8-2.7t-1.8 0.5q-0.2 2-1.7 1.8-1.5-0.3-0.5-0.6 1-0.2 1.8-3.2zm9.4 7.5q0.3-1.5 2-0.5 1.8 1 1.3 2.2-0.5 1.3-2 0.6-1.5-0.8-1.3-2.3zm11.6 8.3q0.2-0.3 1 0 0.7 0.2-0.3 0.2t-0.7-0.2zm54.4 2.4q0.3-0.2 0.6 0 0.2 0.3-0.3 0.3t-0.3-0.3z"
         id="path12" />
      <path
         d="m626 666.8l10 0.2-0.2 1-0.3 1-0.3 0.2-0.2 0.3 0.2 0.3 0.3 0.2 0.3 0.2 0.2 0.3-1 0.3-1 0.2v2l1 0.2 1 0.3 0.2 0.3 0.3 0.2 0.3 0.2 0.2 0.3 8.8 8.7q8.7 8.8 10.4 12 1.8 3.3 9.8 4.3t7 3.3q-1 2.2 4.5 1.4 5.5-0.7 8-0.7t17 1.7q14.5 1.8 15.5-1.7t2-3.5h1l0.2 1.5q0.3 1.5-0.4 2-0.8 0.5-1 2.5-0.3 2-12.6 2.5l-12.2 0.5v17h-28v9q0 9-1 9h-1l-0.2 2.5-0.3 2.5v3l0.3-0.2 0.2-0.3 1-0.3 1-0.2-0.2-1-0.3-1v-1q0-1 0.3-2 0.2-1 1.7-1.2l1.5-0.3-0.2-0.3-0.3-0.2v-2l0.3 0.2 0.2 0.3 1 0.5 1 0.5 0.2 0.3 0.3 0.2 0.3 0.2 0.2 0.3 0.2 0.3 0.3 0.2 0.3 0.2 0.2 0.3 0.2 0.3 0.3 0.2 0.3 1.5 0.2 1.5-1-0.2-1-0.3-0.2-0.3-0.3-0.2 0.3 1.2q0.2 1.3 1.2 1.6l1 0.2-0.2 1-0.3 1-0.3 0.2-0.2 0.3 0.2 0.3 0.3 0.2 0.3 1 0.2 1-1-0.2-1-0.3-0.2-0.3-0.3-0.2-0.5-1.5q-0.5-1.5-1.8-1.7-1.2-0.3-1 2 0.3 2.2-0.2 1.2t-2.8-1.2q-2.2-0.3-3.2 1.7t-1.5 2.7q-0.5 0.8 0.5 0.8t0.8 1.5q-0.3 1.5-1.8 0.5t-1.8 2q-0.2 3-1.2 2.8-1-0.3-1.8 0.4l-0.7 0.8-0.5 1-0.5 1-0.3 0.2-0.2 0.3-0.2 0.3-0.3 0.2-0.3 0.2-0.2 0.3-0.2 0.3-0.3 0.2-0.3 0.2-0.2 0.3h2l0.2-0.3 0.3-0.2 0.3-0.2 0.2-0.3 0.2-0.3 0.3-0.2 0.3-0.2 0.2-0.3 0.2-0.3 0.3-0.2 0.3-0.2 0.2-0.3 1-0.3q1-0.2 1.2 1.3 0.3 1.5 0.8 0.5t0.8-1.2l0.2-0.3-0.2-0.3-0.3-0.2-0.3-1-0.2-1h2l0.2 1 0.3 1v2l-0.3 0.2-0.2 0.3 0.2 0.3 0.3 0.2v4l-0.5-1-0.5-1-0.5-0.5q-0.5-0.5-0.8 1.5l-0.2 2h2v4h-2l-0.2-1.5-0.3-1.5-0.3-0.2-0.2-0.3h-2l-1.5 0.3-1.5 0.2v-1q0-1 2-1t2-1.5v-1.5h-3v2l-1.5 0.2q-1.5 0.3-1 2 0.5 1.8-1.5 1-2-0.7-3.5-0.4l-1.5 0.2-0.2 1-0.3 1-0.3 0.2-0.2 0.3-1 0.3-1 0.2v2h4l0.2-2 0.3-2 0.3 1.5q0.2 1.5 1.7 1.7l1.5 0.3-1.5 0.5-1.5 0.5 1 0.5 1 0.5 1 0.5 1 0.5-0.2 0.3-0.3 0.2-0.3 0.2-0.2 0.3-0.2 0.3-0.3 0.2v4l-0.3-0.2-0.2-0.3-0.2-0.3-0.3-0.2-0.5 1-0.5 1-0.3 0.2-0.2 0.3h-0.5q-0.5 0-3 0t-3.5-1-4.5 0.3q-3.5 1.2-3.5-0.3t-3-1.5h-3l0.2 1q0.3 1 0.6 2.5 0.2 1.5-0.8 1.5t-1-1.5-4.5-0.7q-4.5 0.7-4 1.2t-14 0.8q-14.5 0.2-14.5 1.2t-2 1-1.5-1.2q0.5-1.3 1-2 0.5-0.8-4-1.3t-4.5-1.5-2.5-1.5-2.5 1.5-1 2-1.2-1q-0.3-1-1.6-0.5-1.2 0.5-1.4-0.5-0.3-1-1 0.5-0.8 1.5-1.8 1.5t-1.2-1.5q-0.3-1.5-1.6-1-1.2 0.5-1.4 1.5l-0.3 1-0.3-0.2-0.2-0.3-0.2-0.3-0.3-0.2-0.3-0.2q-0.2-0.3-1.2-0.6l-1-0.2 0.2-1q0.3-1 0.6-3 0.2-2-0.8-2.2-1-0.3 0.5-1.3t1.3-3.3l-0.3-2.2-0.3 0.2-0.2 0.3-1.5 0.3q-1.5 0.2-1.7 1.2-0.3 1-1.8-2l-1.5-3v2q0 2 0 3v1l-0.3-0.2-0.2-0.3-1-0.3-1-0.2 0.2-1.5q0.3-1.5 0.6-1.7l0.2-0.3-0.2-0.3-0.3-0.2-0.5-1-0.5-1-0.3 0.2-0.2 0.3-0.2 0.3-0.3 0.2-0.3 0.2-0.2 0.3 0.2 0.3 0.3 0.2v2l-0.3 0.2-0.2 0.3 0.2 0.3 0.3 0.2 0.3 1 0.2 1h-2v-2l-1-0.2-1-0.3 0.2-0.3 0.3-0.2 0.3-0.2 0.2-0.3 0.2-0.3 0.3-0.2 0.3-0.2 0.2-0.3-1-0.5-1-0.5 0.2-0.3 0.3-0.2 0.3-0.2 0.2-0.3 0.2-0.3q0.3-0.2 1.8-3.7l1.5-3.5 0.3-0.2 0.2-0.3v-0.5l-0.2-0.5q-0.3-0.5-0.6-0.5h-0.2l0.2-2.5 0.3-2.5v-1q0-1-0.5-2t-2.5-7-2-20.5 3.5-23.5 8.5-15 15.3-13l10.2-7 5-1.8q5-1.7 17.5-1.7t22.5 0.3zm-26 21.2q10-0.5 16 1.5t12.2 7.3q6.3 5.2 10.3 13.2t4.5 17.5-2.5 17-5.7 9q-2.8 1.5-3 3.5-0.3 2-3.6 4.2-3.2 2.3-3.7 3.6-0.5 1.2-2.5 1.2t-2.5-0.8q-0.5-0.7-0.5 0.3t-3.5 2-8 1.5-5-0.2q-0.5-0.8-2-1-1.5-0.3-5.5 0.2t-8-1.5-11-8.5-9.8-13.2q-2.7-6.8-2.7-17.8t2.5-16.5 5.2-8q2.8-2.5 4.6-5 1.7-2.5 8-5.7 6.2-3.3 16.2-3.8zm69.2 59.2q0.3-0.2 0.6 0 0.2 0.3-0.3 0.3t-0.3-0.3zm-120.2 21.8q0.5-1 1.2 0.5 0.8 1.5-0.4 1-1.3-0.5-0.8-1.5zm1.2 3.2q0.3-0.2 0.6 0 0.2 0.3-0.3 0.3t-0.3-0.3zm4.8 2.3q0.5-0.5 1.2 1 0.8 1.5-0.4 0.5-1.3-1-0.8-1.5zm94.2-0.3q0.3-0.2 0.6 0 0.2 0.3-0.3 0.3t-0.3-0.3zm-86.4 9q2.7-0.2 2 0.6-0.8 0.7 0.2 2.4 1 1.8 0 1.6-1-0.3-1.5-2-0.5-1.8-2-2-1.5-0.3 1.3-0.6zm83.2 1l2-0.2-0.2 1.5-0.3 1.5-0.3 0.2-0.2 0.3h-7l-2-1q-2-1-0.5-1.3 1.5-0.2 2-1 0.5-0.7 1.3-1 0.7-0.2 1 1.6 0.2 1.7 2 1.4 1.7-0.2 1-1-0.8-0.7 1.2-1zm-76.2 2.6q0.2-0.3 1 0 0.7 0.2-0.3 0.2t-0.7-0.2zm63.2 0.2q0-1 1.2-0.5 1.3 0.5 1 1.3-0.2 0.7-1.2 0.4-1-0.2-1-1.2z"
         id="path14" />
    </g>
    <g
       fill="#2b0a0a"
       stroke="#2b0a0a"
       id="g22">
      <path
         d="m600 688q10-0.5 16 1.5t12.2 7.3q6.3 5.2 10.3 13.2t4.5 17.5-2.5 17-5.7 9q-2.8 1.5-3 3.5-0.3 2-3.6 4.2-3.2 2.3-3.7 3.6-0.5 1.2-2.5 1.2t-2.5-0.8q-0.5-0.7-0.5 0.3t-3.5 2-8 1.5-5-0.2q-0.5-0.8-2-1-1.5-0.3-5.5 0.2t-8-1.5-11-8.5-9.8-13.2q-2.7-6.8-2.7-17.8t2.5-16.5 5.2-8q2.8-2.5 4.6-5 1.7-2.5 8-5.7 6.2-3.3 16.2-3.8z"
         id="path18" />
      <path
         d="m307.5 767l-1.5-0.5-1-0.5-1-0.5-0.2-0.3-0.3-0.2-0.3-0.2-0.2-0.3-0.2-0.3-0.3-0.2-0.3-0.2-0.2-0.3-0.2-0.3-0.3-0.2-0.3-0.2-0.2-0.3 0.2-0.3 0.3-0.2 0.3-0.2q0.2-0.3 2.7-0.8l2.5-0.5-0.2-0.3q-0.3-0.2-0.8-1.7t-3.2-2.5q-2.8-1-2.6-2l0.3-1 0.3-0.2 0.2-0.3-0.2-0.3-0.3-0.2v-2l0.3-1 0.2-1-1 0.2-1 0.3-0.2 0.3-0.3 0.2-0.3 2.2q-0.2 2.3-1.4 2.6-1.3 0.2-1.8 1.2l-0.5 1-0.3-0.2-0.2-0.3-1.5-0.5-1.5-0.5-0.2-0.3-0.3-0.2-0.3-0.2-0.2-0.3-0.2-0.3-0.3-0.2-0.3-0.2-0.2-0.3-2.8-3.7q-2.7-3.8-4.2-10.3t-1-14 2.8-12.7q2.2-5.3 4.2-8.3t3-3.3q1-0.2 4.5-4 3.5-3.7 9.5-6.2t15.5-2.5 17.5 4 12.2 8.3q4.3 4.2 7.3 11.2t3 18-3 17-5.3 9.5q-2.2 3.5-7.7 6.5t-5.5 2-1.5-1-2 1.8q-0.5 1.7-1.5 2.2t-1.8-0.8q-0.7-1.2-1.4 0.6-0.8 1.7-8.3 0.7t-10.5-0.5-4.5 0z"
         id="path20" />
    </g>
    <path
       d="m528 279.2l1-0.2-0.8 1.5q-0.7 1.5-0.7 3v1.5l0.3 0.2 0.2 0.3 0.2 0.3 0.3 0.2 0.3-0.2 0.2-0.3 1-1q1-1 3-1.3l2-0.2-1 3.2q-1 3.3 0 3.6 1 0.2 1.5 1 0.5 0.7 2.5 0 2-0.8 2 0.2t1 1 1 1 1 1.2q1 0.3 2 0.6l1 0.2v4h2l-0.2-1q-0.3-1-0.6-3.5l-0.2-2.5h1.8q1.7 0 4 0.8 2.2 0.7 4.7-1.3t7-1 13.5 1 11.5-0.7q2.5-0.8 3 1 0.5 1.7 2.3 2.4 1.7 0.8 3.2 3.3t3.8 1.5q2.2-1 2.7 9t2.5 9.5 1.2 3.5q-0.7 4 0.3 5t0.3 4.5q-0.8 3.5 0.2 3.5t1.8 29q0.7 29 1.4 32 0.8 3 8.8 3.2l8 0.3 4.5 0.5 4.5 0.5v0.5h-162v-0.5l-3-0.5-3-0.5-2.5-0.5-2.5-0.5 1.5-0.5 1.5-0.5-0.2-0.3-0.3-0.2-0.3-0.2-0.2-0.3 3-0.3 3-0.2-0.2-1.5-0.3-1.5-0.3-0.2-0.2-0.3-1-0.5-1-0.5-1-0.3-1-0.2 0.2 1.5q0.3 1.5-3 1.7l-3.2 0.3 0.2-0.3 0.3-0.2v-1l-0.3-0.2-0.2-0.3 0.2-0.3 0.3-0.2 0.5-1 0.5-1-0.3-0.8q-0.2-0.7 1.3-1.2t3-1l1.5-0.5 0.2-0.3 0.3-0.2 0.3-1.5 0.2-1.5-2-0.2q-2-0.3-3-0.6-1-0.2-0.5-4.2t2-4.2q1.5-0.3 3-1.8t0.5-7.2q-1-5.8 1-6.3t3-3 3-2.7l2-0.3-2.5-0.3q-2.5-0.2-2.5-1.2v-1l1 0.2 1 0.3 2.2-1.3q2.3-1.2 2.8-1.7t1-1.5l0.5-1 0.5-1.5 0.5-1.5 0.3-0.2 0.2-0.3 1.5-0.3q1.5-0.2 1.5 0.8t2 1h2v-3l-2-0.2q-2-0.3-1.2-1 0.7-0.8 0.7-2.8v-2l-0.3-0.2-0.2-0.3v-0.5l1.5-0.2 1.5-0.3 2.2 0.3q2.3 0.2 3 2.2 0.8 2 2.3 1.8l1.5-0.3 0.2-0.3 0.3-0.2 0.3-0.2 0.2-0.3 1-0.5 1-0.5 0.2-0.3 0.3-0.2 0.5-1 0.5-1 0.3-1.5 0.2-1.5-2-0.2q-2-0.3-2-2.3t1-5.3q1-3.2 0-3.2t-0.8-1q0.3-1 4.6-1.8l4.2-0.7 0.2-0.3 0.3-0.2 0.3-0.2 0.2-0.3-4-0.3-4-0.2v-7h1q1 0 0.8-1l-0.3-1-0.3-0.2-0.2-0.3 0.2-0.3 0.3-0.2 0.3-0.2 0.2-0.3 0.2-0.3 0.3-0.2 0.3-1q0.2-1 3.2-0.2 3 0.7 5 0.4 2-0.2 2-1.7t2-1.5h2l0.2-1.5 0.3-1.5 0.3-1 0.2-1-3-0.2-3-0.3-0.2-0.3-0.3-0.2-0.3-0.2-0.2-0.3-0.2-0.3-0.3-0.2-0.3-0.2-0.2-0.3 1-0.5 1-0.5 6-0.3q6-0.2 5.2-3.2-0.7-3 0-4.2 0.8-1.3 1.8-1.6zm-35.2 55.8l0.2 1h-1q-1 0-0.8-1.5 0.3-1.5 0.8-1t0.8 1.5zm-7 10l-0.3 2-0.3-0.2-0.2-0.3-0.2-0.3-0.3-0.2-0.3 1q-0.2 1-1.2 1t0-2.5 2-2.5 0.8 2zm90.2 29.5l-5-1-0.8-3.3q-0.7-3.2 2-7 2.8-3.7 6.8-3.7t5.2 3.3q1.3 3.2 0.6 6.4-0.8 3.3-2.3 4.8t-6.5 0.5z"
       fill="#321b1b"
       stroke="#321b1b"
       id="path24" />
    <path
       d="m782 230v-1l5 0.8q5 0.7 33 1.2t30.5 0.2q2.5-0.2 2.5 1.3t11.8 0.5q11.7-1 12.2 1.5l0.5 2.5 0.3-0.2 0.2-0.3 0.2-0.3 0.3-0.2 0.5-1 0.5-1 0.3 0.2 0.2 0.3 0.5 0.3 0.5 0.2-1 3.8q-1 3.7-2 8-1 4.2-2 4.2t-1.5 4.5-1.5 4.5-1.5 4-1.5 4-0.8 3.5q0.3 3.5-0.2 2.5t-0.8 0.5q-0.2 1.5-1.2 1.5t-2.2 6q-1.3 6-1 7 0.2 1-0.8 1t-1 2 1 2 1 1-1.8 0.5q-1.7-0.5-4 7.5-2.2 8-3.2 8t-3.5 10.5-1.5 10.5 1 1.5-1.8 0q-1.7-1.5-3 3.3-1.2 4.7-2.2 9-1 4.2-2 4.2t-1.8 6q-0.7 6-1.2 4.5t-1.2 2.5q-0.8 4-1.8 4t-0.8 3.5q0.3 3.5-0.2 2.5t-1.2 1.2q-0.8 2.3-3.3 10.6-2.5 8.2-3.5 8.2t-0.5 2.5-0.5 2.5-2.2 4q-1.3 4-1.6 5.5l-0.2 1.5-0.5-0.2q-0.5-0.3-1.3-3-0.7-2.8-6.4-3.6-5.8-0.7-11.3 0.8t-3.5 2.5 1.2 2.7l-0.7 1.8-0.3 0.2-0.2 0.3-0.2 0.3-0.3 0.2-0.3 0.2-0.2 0.3h-2l-0.2-0.3q-0.3-0.2-1.6 0.3-1.2 0.5-1.4-1.5-0.3-2-1.6-1.8l-1.2 0.3v-0.5l0.2-2q0.3-2 1-4 0.8-2-39.2-2h-40v-0.5l0.2-0.3 0.3-0.2 0.3-0.2 0.2-0.3 1-0.5 1-0.5 0.2-0.3 0.3-0.2 0.3-0.2 0.2-0.3-1-0.5-1-0.5-0.2-0.3-0.3-0.2-0.5-1-0.5-1v-4l-0.3-0.2-0.2-0.3 0.2-0.3 0.3-0.2 0.3-0.2 0.2-0.3-3-0.5q-3-0.5-6 1.5l-3 2-0.2 0.3-0.3 0.2-0.3-0.2-0.2-0.3-0.2-0.3-0.3-0.2-0.5-1.5q-0.5-1.5-0.8-4.5-0.2-3-2.4-2.5-2.3 0.5-4 0.5h-1.8l0.2-1 0.3-1v-1q0-1 1.3-1.8 1.2-0.7 1.4-2 0.3-1.2-2.2-2.7t-3-4-2.2-3q-1.8-0.5-1.8-1.5t-2.5-1h-2.5l0.2-1 0.3-1 0.5-2 0.5-2 0.3-0.2 0.2-0.3h3l1 0.3q1 0.2 1 2.4 0 2.3 2 2.3h2l1-0.3 1-0.2-0.2-1.5q-0.3-1.5-0.6-2.5-0.2-1-1.2-1t-0.5-3 3-3.2q2.5-0.3 3.3-1.6l0.7-1.2 0.3-1 0.2-1-1-0.2-1-0.3-0.2-0.3-0.3-0.2-0.3-0.2-0.2-0.3-3.5-0.3q-3.5-0.2-3.5-1.2t-4.5 0.5l-4.5 1.5v-2l-1-0.2-1-0.3-0.2-0.3-0.3-0.2-0.3-1.5-0.2-1.5 1-0.2 1-0.3 0.2-0.3 0.3-0.2 0.3-0.2 0.2-0.3 0.2-0.3 0.3-0.2 0.3-0.2 0.2-0.3 0.2-0.3q0.3-0.2 0-3.2l-0.2-3 4.5 1.2q4.5 1.3 5-2 0.5-3.2 10.5-4 10-0.7 12-0.7h2l0.2-0.3 0.3-0.2v-3l-0.3-0.2-0.2-0.3-0.2-0.3-0.3-0.2-0.5-1-0.5-1-0.3-0.2-0.2-0.3 0.2-0.3 0.3-0.2 0.3-0.2 0.2-0.3 1.5-0.5 1.5-0.5 1-0.5 1-0.5-0.2-0.3-0.3-0.2-0.3-0.2-0.2-0.3-1-0.5-1-0.5h-1.5q-1.5 0-3.5 0.3l-2 0.2-0.2-1-0.3-1-0.5-1-0.5-1v-3l0.3-0.2 0.2-0.3 1-0.5 1-0.5-0.2-0.3-0.3-0.2-0.3-0.2-0.2-0.3 0.2-0.3 0.3-0.2 0.3-0.2 0.2-0.3 0.2-0.3 0.3-0.2 0.3 1q0.2 1 1.2 1t1 1.5 1.5 1.3l1.5-0.3 0.2-0.3 0.3-0.2 0.3-1.5q0.2-1.5 1.7-1.5t1.5-3 5.5-3.8q5.5-0.7 5.5-2.2t1-1.8q1-0.2 0.2-2.7-0.7-2.5-0.7-3.5v-1l0.3 0.2 0.2 0.3 0.2 0.3 0.3 0.2 0.3-0.2 0.2-0.3 0.2-0.3 0.3-0.2 0.5-1 0.5-1 0.3-0.2 0.2-0.3 0.2-0.3 0.3-0.2 0.3 0.2 0.2 0.3 0.2 0.3 0.3 0.2v1l-0.3 0.2-0.2 0.3-0.2 0.3-0.3 0.2-0.5 1-0.5 1-0.3 0.2-0.2 0.3 0.5 1.3q0.5 1.2 1.5 1.4 1 0.3 2.5 0.8l1.5 0.5 1 0.3 1 0.2-0.2 1-0.3 1-0.3 0.2-0.2 0.3h2l1-0.5 1-0.5 0.5-3q0.5-3 4.3-4.3 3.7-1.2 4.7-3.2t1.3-3.2q0.2-1.3 1.2-1.3t2.5 0.3l1.5 0.2-0.2-1.5-0.3-1.5-0.5-1-0.5-1-0.3-0.2q-0.2-0.3-2.7-0.8l-2.5-0.5-0.2-0.3-0.3-0.2-0.3-0.2-0.2-0.3 0.2-0.3 0.3-0.2v-1l-0.3-0.2-0.2-0.3h3l-0.2 0.3-0.3 0.2-0.3 1-0.2 1 3.2 0.5q3.3 0.5 3 1.3-0.2 0.7 0.8 1.2l1 0.5 0.2 0.3 0.3 0.2 0.3 0.2 0.2 0.3 1.5 0.5 1.5 0.5 0.2 0.3 0.3 0.2v-4l0.3-0.2q0.2-0.3 1.2-0.8t-1-1.5l-2-1-0.2-0.3-0.3-0.2-0.3-0.2-0.2-0.3 0.2-0.3 0.3-0.2 4-0.5q4-0.5 3-3.5t-0.7-3.2q0.2-0.3 3.7-0.8l3.5-0.5 0.2-0.3 0.3-0.2 0.3-0.2 0.2-0.3 0.2-0.3 0.3-0.2 0.3-0.2 0.2-0.3 0.2-0.3 0.3-0.2 0.3-0.2 0.2-0.3 0.2-0.3 0.3-0.2v-1l-0.3-0.2-0.2-0.3h-2l-0.2 0.3q-0.3 0.2-0.8 1.2l-0.5 1-0.3 0.2-0.2 0.3-1 0.3-1 0.2-0.2-1q-0.3-1-0.8-4.5t-1.8-6q-1.2-2.5-4.7-2l-3.5 0.5 0.2-2 0.3-2 0.3-1.5 0.2-1.5 1-0.2 1-0.3 0.2-0.3 0.3-0.2 0.3-1 0.2-1 3.5-1.2q3.5-1.3 7.5-2 4-0.8 4-1.8z"
       fill="#281313"
       stroke="#281313"
       id="path26" />
    <path
       d="m314 228.2v-0.2h38l-0.2 0.5-0.3 0.5-0.3 1-0.2 1 4 0.2 4 0.3 0.2 0.3 0.3 0.2 0.7 0.8q0.8 0.7 9.3 0.2t18.7 0.2q10.3 0.8 33 2 22.8 1.3 23.8 1.3h1l1.5 0.5 1.5 0.5-1 0.5-1 0.5 2 0.3 2 0.2v2l-2-0.2q-2-0.3-4 0.2l-2 0.5h-3l-0.2-0.3-0.3-0.2v3l0.3 0.2 0.2 0.3 3.5 0.5q3.5 0.5 4.5 0.5h1l2-0.3 2-0.2v3l-3 0.2-3 0.3 0.2 0.3 0.3 0.2 0.3 0.2 0.2 0.3 3.5-0.3q3.5-0.2 3.5 1.3t1 1.5 1 1.5 0.8 2q0.7 0.5 0 3-0.8 2.5 0.7 2.5t1.5-1 1-1 1.2 1l0.3 1 0.3 0.2 0.2 0.3 1.5 0.5 1.5 0.5-0.2 0.3-0.3 0.2-0.3 1-0.2 1-3 1q-3 1-3 3.2 0 2.3-2.5 2.6-2.5 0.2-2.5 1.2t1.5 1 0 4.5-4 4.7q-2.5 0.3-1 0.6 1.5 0.2 1.5 1.2t1.5 0.8l1.5-0.3 1-0.3 1-0.2-0.2 1-0.3 1-0.3 0.2-0.2 0.3-1 0.5q-1 0.5-4 3l-3 2.5-0.2 0.3-0.3 0.2v2l0.3 0.2 0.2 0.3 3.2 0.7q3.3 0.8 3.6 1l0.2 0.3-1.8 0.7q-1.7 0.8-2.4 5.3-0.8 4.5-1.8 4.7-1 0.3-1.2 0.6l-0.3 0.2-0.3-0.2-0.2-0.3-1-0.3-1-0.2v2l1 0.2 1 0.3 0.2 0.3 0.3 0.2 0.3-0.2 0.2-0.3h1q1 0 0 1t0 1h4l0.2 0.3 0.3 0.2v3l-0.3 0.2-0.2 0.3h-1.5q-1.5 0-2.5 0h-1l-0.2 0.3-0.3 0.2-0.3 1-0.2 1 1 0.2 1 0.3 0.2 0.3 0.3 0.2 0.3-0.2 0.2-0.3 0.2-0.3 0.3-0.2 0.3 0.2 0.2 0.3 1.5 1.5q1.5 1.5 3.5 1.8 2 0.2 4.5 3.4 2.5 3.3 4.5 3.3t3.5-1 3.5-1.3l2-0.2v1q0 1 1 1t1.8 1.5q0.7 1.5 1 3l0.2 1.5 2 0.2 2 0.3 0.2 0.3 0.3 0.2 0.3 0.2 0.2 0.3 1 0.3 1 0.2 0.2-2.5 0.3-2.5v-1l-0.3-0.2-0.2-0.3-0.2-0.3-0.3-0.2-0.3-0.2q-0.2-0.3-2.2-0.8l-2-0.5-1-0.3-1-0.2v-2l1 0.2 1 0.3 1 0.5 1 0.5h4l0.2-0.3 0.3-0.2v-4l0.3-0.2 0.2-0.3 0.2-0.3 0.3-0.2 0.3 4.5 0.2 4.5v0.5h1.5q1.5 0 2-0.3l0.5-0.2h2.5l0.3 0.5 0.2 0.5v0.5l-1 0.3-1 0.2v2h-1.8q-1.7 0-3 1.2-1.2 1.3 0.8 1.6l2 0.2v3h-2q-2 0-2-1t-1.5-0.8l-1.5 0.3-0.2 0.3-0.3 0.2-0.5 1.5-0.5 1.5-0.3 0.2-0.2 0.3 1 0.3q1 0.2 1-0.8t1-1 0.8 2l-0.3 2-0.3-0.2-0.2-0.3-0.2-0.3-0.3-0.2-2.3 2.8q-2.2 2.7-4.7 3-2.5 0.2-3.5 2.7t-3 3-1 6.3q1 5.7-0.5 7.2t-3 1.8q-1.5 0.2-2 4.2t0.5 4.2q1 0.3 3 0.6l2 0.2-0.2 1.5-0.3 1.5-0.3 0.2-0.2 0.3-1.5 0.5q-1.5 0.5-3 1t-1.3 1.2l0.3 0.8-0.5 1-0.5 1-0.3 0.2-0.2 0.3 0.2 0.3 0.3 0.2v1l-0.3 0.2-0.2 0.3 3.2-0.3q3.3-0.2 3-1.7l-0.2-1.5 1 0.2 1 0.3 1 0.5 1 0.5 0.2 0.3 0.3 0.2 0.3 1.5 0.2 1.5-3 0.2-3 0.3 0.2 0.3 0.3 0.2 0.3 0.2 0.2 0.3-1.5 0.5-1.5 0.5 2.5 0.5 2.5 0.5 3 0.5 3 0.5v0.5l-62 0.2q-62 0.3-178.5 0.8l-116.5 0.5-0.2-0.3-0.3-0.2-0.5-1q-0.5-1-0.8-1h-0.2l0.2-0.5 0.3-0.5 0.3-0.2 0.2-0.3 1-0.3 1-0.2-0.2-1-0.3-1-0.5-1.5q-0.5-1.5-8.5-24.5l-8-23-0.3-1-0.2-1h1q1 0 1 1t1.5 1h1.5l-0.2-2.5-0.3-2.5v-2q0-2 0.5-2.5t-1.5-4-1-6l1-2.5 0.3-0.2 0.2-0.3 1-1q1-1 6-1h5l1.5 0.3 1.5 0.2-0.2-1-0.3-1-0.3-0.2-0.2-0.3-0.2-0.3-0.3-0.2-0.3-0.2-0.2-0.3h-3q-3 0-3.5 0h-0.5l-1-0.5-1-0.5 0.2-0.3 0.3-0.2 0.3-0.2 0.2-0.3 0.2-0.3q0.3-0.2 1.6-2.7 1.2-2.5 0.2-2.7-1-0.3-0.5-2.8t2-5.2q1.5-2.8 4.5-4 3-1.3 3.8 0 0.7 1.2 1.2-1.3t1-1 0.5-0.5 0.7-3.8q0.8-1.7 1.8-2.7t2.5-3.7q1.5-2.8 2.5-3 1-0.3 1.8-2 0.7-1.8 3-2.6 2.2-0.7 2.7-2.4 0.5-1.8 2-1.8t1.7-5q0.3-5 1.3-6.5t2.3-1.3q1.2 0.3 2.7-3.4 1.5-3.8 5-4 3.5-0.3 4.3-1 0.7-0.8 1.2 0.2t2.2 1.2q1.8 0.3 1.6-1-0.3-1.2 1 0 1.2 1.3 1.7-1l0.5-2.2 1.8 0.5q1.7 0.5 2.7 2t1.3 1.7l0.2 0.3 1.5 0.3 1.5 0.2 0.2-1.5q0.3-1.5 0.3-2t0.7-1q0.8-0.5 1 1l0.3 1.5 0.5-2.5q0.5-2.5 1-1.5l0.5 1v-2q0-2-1.3-4l-1.2-2 2.5-0.2q2.5-0.3 7.5-1.3t21-3 24-3 27.5-1.5 36-2.5 16.5-2.3zm-135.8 26q0.3-0.2 0.6 0l0.2 0.3h-0.5q-0.5 0-0.3-0.3zm295.8 95.8v-1l1 0.2 1 0.3 1 0.5q1 0.5-1 0.8-2 0.2-2-0.8z"
       fill="#412c2c"
       stroke="#412c2c"
       id="path28" />
    <path
       d="m560 188.8l1-0.3 2.8 0.7q2.7 0.8 3.4 2.8 0.8 2 1.8 2t7 7.5 8.2 9q2.3 1.5 2.8 2.5l0.5 1 0.3 0.2 0.2 0.3 0.2 0.3 0.3 0.2 0.5 1q0.5 1 0.8 1h0.2l0.2 1q0.3 1 0.6 1h0.2l0.2 1q0.3 1 0.6 1h0.2l1.5 3.2q1.5 3.3 4 3.6l2.5 0.2 0.2 1 0.3 1 0.3 0.2 0.2 0.3-3 0.5-3 0.5-8 0.5q-8 0.5-9 1t-11.5 2-18.5 2.5-10.5 1.5l-2.5 0.5-0.2-0.3-0.3-0.2-0.3 0.2-0.2 0.3-1.5 0.3-1.5 0.2v3l1 0.2 1 0.3 0.5 0.5q0.5 0.5 3.5 1l3 0.5 0.2 0.3 0.3 0.2v2l-0.3 0.2-0.2 0.3-1 0.5-1 0.5-0.2 0.3-0.3 0.2-0.3 0.2-0.2 0.3-0.2 0.3-0.3 0.2-0.3 0.2-0.2 0.3 0.2 0.3 0.3 0.2 0.3 0.2 0.2 0.3 0.2 0.3 0.3 0.2 0.3 0.2 0.2 0.3 0.2 0.3 0.3 0.2v1l-0.5 1-0.5 1-0.3-0.2-0.2-0.3-1-0.5-1-0.5-1-0.3-1-0.2 0.2-1.5q0.3-1.5 0.8-2.5l0.5-1-0.3-0.2-0.2-0.3h-2l0.2 0.3 0.3 0.2v1l-0.5 1-0.5 1-0.3 2q-0.2 2 1.3 2.8 1.5 0.7 2.5 1l1 0.2-0.2 1.5-0.3 1.5-0.3 0.2-0.2 0.3h-2l-0.2-0.3-0.3-0.2-0.3 0.2-0.2 0.3-1 0.3q-1 0.2-1-0.8t-2.5-0.8q-2.5 0.3-4.3 2l-1.7 1.8-0.3 0.2-0.2 0.3-0.2 0.3-0.3 0.2v2l0.3 0.2 0.2 0.3 0.2 0.3 0.3 0.2 0.3 0.2 0.2 0.3 0.2 0.3 0.3 0.2h3.5q3.5 0-0.2 0.5-3.8 0.5-3.8 1.5v1h-2l0.2 1.5 0.3 1.5 0.3 0.2 0.2 0.3 3 0.7q3 0.8 3.2-0.2 0.3-1 0.6-1.2l0.2-0.3h2l-0.2 0.3-0.3 0.2-0.3 0.2-0.2 0.3 0.2 0.3 0.3 0.2v1q0 1-0.3 1h-1.2q-1 0-1 1v1l-0.5 0.2q-0.5 0.3-0.7 0.6-0.3 0.2 0.4 3.2 0.8 3-5.2 3.2l-6 0.3-1 0.5-1 0.5 0.2 0.3 0.3 0.2 0.3 0.2 0.2 0.3 0.2 0.3 0.3 0.2 0.3 0.2 0.2 0.3 3 0.3 3 0.2-0.2 1-0.3 1-0.3 1.5-0.2 1.5h-2q-2 0-1.5 2.5t-0.5 2.5-1-1-1.5-0.8q-1.5 0.3-4.5-0.4-3-0.8-3.2 0.2l-0.3 1-0.3 0.2-0.2 0.3-0.2 0.3-0.3 0.2-0.3 0.2-0.2 0.3 0.2 0.3 0.3 0.2 0.3 1q0.2 1-0.8 1h-1v7l4 0.2 4 0.3-0.2 0.3-0.3 0.2-0.3 0.2-0.2 0.3-4.2 0.7q-4.3 0.8-4.6 1.8-0.2 1 0.8 1t0 3.2q-1 3.3-1 5.3t2 2.3l2 0.2-0.2 1.5-0.3 1.5-0.5 1-0.5 1-0.3 0.2-0.2 0.3-1 0.5-1 0.5-0.2 0.3-0.3 0.2-0.3 0.2-0.2 0.3-1.5 0.3q-1.5 0.2-2.5-1.3l-1-1.5-0.2-0.5-0.3-0.5h-0.5v-0.2q0-0.3-1 0l-1 0.2h-4l-0.2-4.5-0.3-4.5-0.3 0.2-0.2 0.3-0.2 0.3-0.3 0.2v4l-0.3 0.2-0.2 0.3-2 0.5q-2 0.5-1 1t1.2 0.8l0.3 0.2 0.3 0.2 0.2 0.3 0.2 0.3 0.3 0.2v1l-0.3 2.5-0.2 2.5-1-0.2-1-0.3-0.2-0.3-0.3-0.2-0.3-0.2-0.2-0.3-2-0.3-2-0.2-0.2-1.5q-0.3-1.5-1-3-0.8-1.5-1.8-1.5t-1-1v-1l-2 0.2q-2 0.3-3.5 1.3t-3.5 1-4.5-3.3q-2.5-3.2-4.5-3.4-2-0.3-3.5-1.8l-1.5-1.5-0.2-0.3-0.3-0.2-0.3 0.2-0.2 0.3-0.2 0.3-0.3 0.2-0.3-0.2-0.2-0.3-1-0.3-1-0.2 0.2-1 0.3-1 0.3-0.2 0.2-0.3h1q1 0 2.5 0h1.5l0.2-0.3 0.3-0.2v-3l-0.3-0.2-0.2-0.3h-4q-1 0 0-1t0-1h-1l-0.2 0.3-0.3 0.2-0.3-0.2-0.2-0.3-1-0.3-1-0.2v-2l1 0.2 1 0.3 0.2 0.3 0.3 0.2 0.3-0.2q0.2-0.3 1.2-0.6 1-0.2 1.8-4.7 0.7-4.5 2.4-5.3l1.8-0.7-0.2-0.3q-0.3-0.2-3.6-1l-3.2-0.7-0.2-0.3-0.3-0.2v-2l0.3-0.2 0.2-0.3 3-2.5q3-2.5 4-3l1-0.5 0.2-0.3 0.3-0.2 0.3-1 0.2-1-1 0.2-1 0.3-1.5 0.3q-1.5 0.2-1.5-0.8t-1.5-0.8l-1.5 0.3-1 0.3-1 0.2v-2h3.5q3.5 0 5-4.5t0-4.5-1.5-1 2.8-1.5q2.7-0.5 2.4-2.5-0.2-2 1.8-2.8 2-0.7 3-1l1-0.2 0.2-1 0.3-1 0.3-0.2 0.2-0.3-1.5-0.5-1.5-0.5-0.2-0.3-0.3-0.2-0.3-1q-0.2-1-1.2-1t-1 1-1.5 1-0.7-2.5q0.7-2.5 0-3-0.8-0.5-0.8-2t-1-1.5-1-1.5-3.5-1.3l-3.5 0.3-0.2-0.3-0.3-0.2-0.3-0.2-0.2-0.3 3-0.3 3-0.2v-3l-2 0.2-2 0.3h-1q-1 0-4.5-0.5l-3.5-0.5-0.2-0.3-0.3-0.2v-3l0.3 0.2 0.2 0.3h3l2-0.5q2-0.5 4-0.2l2 0.2v-2l-2-0.2-2-0.3 1-0.5 1-0.5-1.5-0.5-1.5-0.5h-1q-1 0-23.8-1.3-22.7-1.2-33-2-10.2-0.7-18.7-0.2t-9.3-0.2l-0.7-0.8-0.3-0.2-0.2-0.3-4-0.3-4-0.2 0.2-1 0.3-1 0.3-0.5 0.2-0.5 72-0.5q72-0.5 72.5-3t4.3-5.5q3.7-3 4.2-4t0.8-1.2l0.2-0.3 1-0.3 1-0.2 0.2-1 0.3-1 0.3-0.2 0.2-0.3h2l0.2 0.3 0.3 0.2 0.5 1 0.5 1 3.5 7q3.5 7 3.8 7.2 0.2 0.3 10.2 0.3h10l2-0.5 2-0.5-1-0.5-1-0.5-0.2-0.3-0.3-0.2-0.3-1-0.2-1-1-0.2-1-0.3-0.2-0.3-0.3-0.2-0.3-0.2q-0.2-0.3-4.2-2.6-4-2.2-4.8-3.7l-0.7-1.5-0.5-1-0.5-1v-5l0.3-0.2 0.2-0.3 1-0.3 1-0.2v-2l9-1.8q9-1.7 13.2-5.4 4.3-3.8 4.6-4.8 0.2-1 1.2-1t1-1 1-1.2zm-31 64.2q1 0 1 1t-1 1-1-1 1-1zm-51 75v-1h1q1 0 1 1t-1 1h-1v-1z"
       fill="#361f1f"
       stroke="#361f1f"
       id="path30" />
    <path
       d="m556 667.8l6 0.2 7.5 0.2q7.5 0.3 7 0.8t2 0.5 2.5 0.3v0.2l-10.2 7q-10.3 7-15.3 13t-8.5 15-3.5 23.5 2 20.5 2.5 7 0.5 2v5l0.3 1 0.2 1h-2l-0.2-1.5-0.3-1.5-0.3-0.2-0.2-0.3-0.2-0.3-0.3-0.2-0.3-0.2-0.2-0.3-0.2-0.3-0.3-0.2-0.3 1-0.2 1h-2l-0.2 1.5q-0.3 1.5-0.6 2.5-0.2 1-3.2 0.2l-3-0.7 0.2 0.3 0.3 0.2 0.3 1 0.2 1h-3v-9h1.5q1.5 0 1.3-1-0.3-1-1.6-0.5-1.2 0.5-1-1l0.3-1.5 0.3 0.2 0.2 0.3h1l1.5-0.3q1.5-0.2 2 0.6 0.5 0.7 0.7 0.4 0.3-0.2 0.6 0l0.2 0.3h1l1-0.3 1-0.2-0.2-1-0.3-1-0.3-0.2-0.2-0.3-0.2-0.3-0.3-0.2-0.3-1.5q-0.2-1.5-1.2-1.5t-0.5-2-0.5-2-1.5-10l-0.5-10 0.2-1.5q0.3-1.5 3.3-14t0.7-13.5q-2.2-1-2.2-2.5v-1.5l-1-0.2q-1-0.3-2.5-0.8t-5.5-0.8q-4-0.2-3.5 1.8t-1 1.8q-1.5-0.3-7.5 0-6 0.2-6 1.7t-2 1.5-2.8-2.5q-0.7-2.5-1-1.5-0.2 1-2.7 1.2-2.5 0.3-5.5 1.8t-8 0.8q-5-0.8-5 0.2t-3 0.8q-3-0.3-3.5-2-0.5-1.8-1.5-1.6-1 0.3-1 1.3t-7.5 1.7q-7.5 0.8-6.5-1.7t-0.5-1.7q-1.5 0.7-10 1.4-8.5 0.8-8.5-0.7t-2-1.7q-2-0.3-3-2.6-1-2.2-3-2-2 0.3-3 1.8t-4 1.5-6-1.5l-3-1.5-0.2-0.3-0.3-0.2v-5l0.3-0.2 0.2-0.3v-0.5l0.5-0.2 0.5-0.3 0.2-0.3 0.3-0.2 1.3-4.5q1.2-4.5 43.7-5t42.5-2 19-2.3q19-0.7 21-0.7t8 0.3zm-12.8 89.4q0.3-0.2 0.6 0 0.2 0.3-0.3 0.3t-0.3-0.3zm-6.7 5.6l-1.5-0.3-0.2-0.3-0.3-0.2-0.3-0.2-0.2-0.3 1.5-0.7q1.5-0.8 2 0 0.5 0.7 2.5-0.3t0.2 1.7q-1.7 2.8-2 1.8-0.2-1-1.7-1.2z"
       fill="#220909"
       stroke="#220909"
       id="path32" />
    <path
       d="m739.5 97.2l0.5-0.2h2.5q2.5 0 2.5 1t6.5 1.5 6.5 1.5-0.8 1.5q-0.7 0.5 0.6 1.7 1.2 1.3 2 1.6 0.7 0.2 0.7 1.7t0.7-0.5q0.8-2 2.3-2t1.5 4.8q0 4.7 3.2 3 3.3-1.8 3.6-0.3 0.2 1.5-2.8 2t-2.5 1.3q0.5 0.7 6.3 1.4 5.7 0.8 9.7 1.3t3.7 1.5q-0.2 1-1.7 1.2-1.5 0.3-0.5 0.6 1 0.2 1 1.2t3.2 2q3.3 1 3.6 1.8 0.2 0.7 2.2 0.7t0.5-0.3q-1.5-0.2-1.5-1.2t4.5-1 4 1.2q-0.5 1.3-2 1.6-1.5 0.2-1.5 1.2t6.5 1.8q6.5 0.7 5.7 1.4-0.7 0.8 1.3 0.8t1.3-0.8q-0.8-0.7 1.7-1 2.5-0.2 2.5 2.6 0 2.7-0.2 4.4-0.3 1.8-0.6 2-0.2 0.3 1.3 0.6l1.5 0.2v4l-0.2 2q-0.3 2-0.6 3l-0.2 1 1.8 1.5q1.7 1.5 2 1.5h0.2l0.2-0.5q0.3-0.5 0.6-2l0.2-1.5h1l0.2 1 0.3 1 0.3 0.2 0.2 0.3 0.2 0.3 0.3 0.2 0.5 2 0.5 2v2l-0.3-0.2-0.2-0.3-0.2-0.3q-0.3-0.2-0.6-1.7-0.2-1.5-1.2-1.5h-1l0.2 1.5 0.3 1.5 0.3 0.2 0.2 0.3 0.2 0.3 0.3 0.2 0.3 2.5q0.2 2.5 1.2 2.5h1v0.2q0 0.3 1.5 0.8l1.5 0.5 0.2 0.3 0.3 0.2 0.3 0.2 0.2 0.3-2.5 0.5-2.5 0.5-1.5 0.5-1.5 0.5-0.2 0.3-0.3 0.2-0.3 0.2-0.2 0.3-0.2 0.3-0.3 0.2-0.5 1-0.5 1-0.3 0.2-0.2 0.3h-2l0.2-0.3 0.3-0.2v-6q0-6-0.5-7t-1-6-1.8-4.5q-1.2 0.5-1.4-1.5-0.3-2-1.6-2.5-1.2-0.5-1.4-1.5-0.3-1-3-3.5-2.8-2.5-2.8-3.5t-6-0.8q-6 0.3-11.2-1.4-5.3-1.8-11.6-3.3-6.2-1.5-6.7 2l-0.5 3.5-0.5 0.2q-0.5 0.3-1.5 2.6-1 2.2-2 2.2t-2.2 4.5l-1.3 4.5-0.3 0.2-0.2 0.3 0.2 0.3 0.3 0.2v1l-0.3 0.2-0.2 0.3 0.2 0.3 0.3 0.2 0.3 1 0.2 1h-2l-0.2-1-0.3-1-0.5-1.5-0.5-1.5-0.5-5-0.5-5-0.3-0.2-0.2-0.3-0.2-0.3-0.3-0.2-0.3 0.2-0.2 0.3-0.2 0.3-0.3 0.2-0.3 0.2-0.2 0.3-0.2 0.3-0.3 0.2-0.3 0.2-0.2 0.3-0.2 0.3-0.3 0.2-0.3 0.2-0.2 0.3-0.2 0.3-0.3 0.2-0.3 1q-0.2 1-1.7 1.8-1.5 0.7-5.5 2.7t-5 3.5-2.5 0.5-3.3-0.3q-1.7 0.8-7 1.6l-5.2 0.7-1.5-0.5-1.5-0.5-0.2-0.3-0.3-0.2-0.3-0.2-0.2-0.3-0.2-0.3-0.3-0.2-0.3-0.2-0.2-0.3 2-0.5 2-0.5 1.5-0.3q1.5-0.2 1.7-3.2 0.3-3-0.2-4l-0.5-1-0.3-1-0.2-1 2.8 0.5q2.7 0.5 3 1.5 0.2 1 3 0.5 2.7-0.5 6.4-2.3 3.8-1.7 10.3-6.7t6.5-5.3v-0.2h0.2q0.3 0 0.3-4.5t-4.7-10.3q-4.8-5.7-9.3-8.4l-4.5-2.8-0.5-0.8q-0.5-0.7 1.3-2 1.7-1.2 1.4-1.4-0.2-0.3 0.3-0.6zm41.7 23.6q-0.2-0.3 0-0.6 0.3-0.2 0.3 0.3t-0.3 0.3zm32 16q-0.2-0.3 0-0.6 0.3-0.2 0.3 0.3t-0.3 0.3zm5 17q-0.2-0.3 0-0.6 0.3-0.2 0.3 0.3t-0.3 0.3z"
       fill="#151515"
       stroke="#151515"
       id="path34" />
    <path
       d="m818.8 142.5l0.2-1.5 2.2 2.5q2.3 2.5 2.6 4.5l0.2 2h-1l-0.2 0.5q-0.3 0.5-0.6 2l-0.2 1.5h-2q-2 0-2.2-2.5-0.3-2.5-0.8-0.5t0 4.5 1 3.5 0.5 7v6l-0.3 0.2-0.2 0.3h2l0.2-0.3 0.3-0.2 0.5-1 0.5-1 0.3-0.2 0.2-0.3 0.2-0.3 0.3-0.2 0.3-0.2 0.2-0.3 1.5-0.5 1.5-0.5 2.5-0.5 2.5-0.5-0.2-0.3-0.3-0.2-0.3-0.2-0.2-0.3-1.5-0.5q-1.5-0.5-1.5-0.8v-0.2l1-0.2q1-0.3-0.5-0.6-1.5-0.2-1.5-1.7t5-1.5 5 1 3 1 3 1-2.5 1.2q-2.5 0.3 0 0.8l2.5 0.5-0.2 0.3-0.3 0.2-0.3 0.2-0.2 0.3 1 0.3q1 0.2 1-2.3t1.2-2q1.3 0.5 1 1.7-0.2 1.3 1.3 1.6 1.5 0.2 1.5 1.2t3 1 3 2.2q0 2.3-1 2.6-1 0.2 0.5 6 1.5 5.7 2 4.2t1.5-1.8q1-0.2 1 1.8t1 2 1.5 1.2q0.5 1.3-1 2.3t-0.3 1.7q1.3 0.8 0.8 4.8t-1.2 1.2q-0.8-2.7-0.8 4.8t0.8 6.8q0.7-0.8 1 1.7 0.2 2.5-0.8 2.5t-1.5 1.2q-0.5 1.3-2.5 0.8t-3.5 0 0.5 1l2 0.5 2.5-0.5q2.5-0.5 3-1t0.7-0.8l0.3-0.2 0.3 1q0.2 1 1.2 1t1.5 3 2 3.2l1.5 0.3 0.2 0.3 0.3 0.2v1.5q0 1.5-0.3 1.7-0.2 0.3-1-1.4l-0.7-1.8-0.3 2.5-0.2 2.5h18v6h-2v2l-0.5-0.2-0.5-0.3-0.2-0.3-0.3-0.2-0.5 1-0.5 1-0.3 0.2-0.2 0.3-0.2 0.3-0.3 0.2-0.5-2.5q-0.5-2.5-12.2-1.5-11.8 1-11.8-0.5t-2.5-1.3q-2.5 0.3-30.5-0.2t-33-1.2l-5-0.8-12.5-0.2q-12.5-0.3-13.5-0.6l-1-0.2 0.2-8q0.3-8-0.4-11.8l-0.8-3.7-0.2-0.3-0.3-0.2-0.3-0.2-0.2-0.3-1-0.5q-1-0.5-3 0t-10 1-9.2 1.8q-1.3 1.2-1.6 11.2l-0.2 10-2 0.2-2 0.3h-2l0.2-0.3 0.3-0.2v-1l-0.5-2-0.5-2-2-6q-2-6-0.7-11.5 1.2-5.5 7.2-6.3 6-0.7 16.8-2.4 10.7-1.8 11-1.6l0.2 0.3 1.5 0.5 1.5 0.5 2 0.3 2 0.2-0.2-1.5-0.3-1.5-0.3-0.2-0.2-0.3-0.2-0.3-0.3-0.2-0.3-0.2-0.2-0.3-0.2-0.3-0.3-0.2-0.3-0.2-0.2-0.3-1-0.5-1-0.5-2-0.5q-2-0.5-6.5-1.2l-4.5-0.8-0.2-1-0.3-1-0.5-1-0.5-1-0.5-1-0.5-1-0.3-2-0.2-2h2l0.2-1 0.3-1 0.3-0.2 0.2-0.3h3q3 0 4 0h1l1.5 0.5 1.5 0.5 0.2 0.3 0.3 0.2v-2l-0.3-0.2-0.2-0.3-0.2-0.3-0.3-0.2-0.3-0.2-0.2-0.3-0.2-0.3-0.3-0.2-0.3-0.2-0.2-0.3-2-0.3q-2-0.2-2.2-1.7l-0.3-1.5-0.5-1-0.5-1-0.3-0.2-0.2-0.3-0.2-0.3-0.3-0.2-0.3-0.2-0.2-0.3-0.2-0.3-0.3-0.2v-2l0.3 0.2 0.2 0.3 0.2 0.3 0.3 0.2 0.3 0.2 0.2 0.3 0.2 0.3 0.3 0.2 0.3 0.2 0.2 0.3 1.5 0.3 1.5 0.2v1q0 1 1.2 1.5 1.3 0.5 1.6 2 0.2 1.5 3.7 0.7 3.5-0.7 5.5-1.2l2-0.5 1-0.5 1-0.5 1-0.3 1-0.2 0.2-1 0.3-1 0.3-0.2q0.2-0.3 0.4-0.6l0.3-0.2v-1q0-1 0-2.5t-2.3-3q-2.2-1.5-2.4-3-0.3-1.5 0.4-4.3 0.8-2.7 2.3-8.4l1.5-5.8 0.5-3.5q0.5-3.5 6.7-2 6.3 1.5 11.6 3.3 5.2 1.7 11.2 1.4 6-0.2 6 0.8t2.8 3.5q2.7 2.5 3 3.5 0.2 1 1.4 1.5 1.3 0.5 1.6 2.5 0.2 2 2 1 1.7-1 2.2-2.5t0.8-3zm1.2 5q0-1.5 1-1.5t1 1.5-1 1.5-1-1.5zm10.5 14.3q-1.5-0.3 1-0.6 2.5-0.2 2.5 0.8t1 1.2q1 0.3-1 0.6-2 0.2-2-0.8t-1.5-1.2zm-70.3 37q-0.2-0.3 0-0.6 0.3-0.2 0.3 0.3t-0.3 0.3zm96 12q-0.2-0.3 0-0.6 0.3-0.2 0.3 0.3t-0.3 0.3zm6 9q-0.2-0.3 0-0.6 0.3-0.2 0.3 0.3t-0.3 0.3z"
       fill="#1a1a1a"
       stroke="#1a1a1a"
       id="path36" />
    <path
       d="m760 586v1l-2.2 8q-2.3 8-2.3 10t-0.5 1-2.8 7.5q-2.2 8.5-3.2 8.5t-1.5 4-1.5 4-1.5 4.5-1.5 4.5-0.8 1.5q0.3 1.5 1 0.7 0.8-0.7 0.8 0.8t1 1.8l1 0.2v2q0 2-1 2t-1.2-1.5q-0.3-1.5-0.6 1-0.2 2.5-1.2 2.5t-1.5 3.5-2.3 3q-1.7-0.5-2.4 4-0.8 4.5-1.8 4.5t-0.5 2.5-0.5 2.5-1 1.5-1 1.5-2.2 6q-1.3 6-1.3 8.5t-0.5 0.5-1.8 3.2q-1.2 5.3-1.7 6.6-0.5 1.2-1.5 1.4-1 0.3-1 0.6v0.2h-1q-1 0-2 3.5t-15.5 1.7q-14.5-1.7-17-1.7t-8 0.7q-5.5 0.8-4.5-1.4 1-2.3-7-3.3t-9.8-4.3q-1.7-3.2-10.4-12l-8.8-8.7-0.2-0.3-0.3-0.2-0.3-0.2-0.2-0.3-1-0.3-1-0.2v-2l1-0.2 1-0.3-0.2-0.3-0.3-0.2-0.3-0.2-0.2-0.3 0.2-0.3 0.3-0.2 0.3-1 0.2-1 19-0.8q19-0.7 21-1.2t8 0 7.5 0.2q1.5-0.2 1.5-1.2t1-1 1.5-3 1.3-3.5q0.7-0.5 1.4-4 0.8-3.5 1.8-3.5t2-4.8q1-4.7 2-5 1-0.2 1.5-3.2t1.5-3 7.8-19q6.7-19 7.2-21l0.5-2 0.3-1 0.2-1h3.5q3.5 0 3.5 2t6 4.8q6 2.7 6.2 3l0.3 0.2 2.3-3.8q2.2-3.7 7-4.4 4.7-0.8 5.4-3.3 0.8-2.5 1.8-2.5t1 1zm-21 64q0.5-2 0.5 0.5t-0.5 3.5-0.5-0.5 0.5-3.5z"
       fill="#1a0505"
       stroke="#1a0505"
       id="path38" />
    <path
       d="m115.5 399.2l1.5-0.2h0.2q0.3 0 0.8 1l0.5 1 0.3 0.2 0.2 0.3 116.5-0.5q116.5-0.5 178.5-0.8l62-0.2h276q40 0 39.2 2-0.7 2-1 4l-0.2 2h-0.5l-0.5 1.5q-0.5 1.5-5.8 15-5.2 13.5-63.7 15.3-58.5 1.7-148.5 2.4l-90 0.8-2-0.2q-2-0.3-7.5-0.8t-140.5-1.2l-135-0.8-17-0.2q-17-0.3-32-0.6-15-0.2-17-6.2t-17-5.8q-15 0.3-18-5.7l-3-6-0.2-0.3-0.3-0.2-0.3 0.2-0.2 0.3-0.5 0.3-0.5 0.2-0.2-1-0.3-1-0.5-2-0.5-2-0.5 5-0.5 5-0.3 2.5-0.2 2.5h-2v-6h2l-0.2-7q-0.3-7-0.6-8.5l-0.2-1.5 0.2-0.5 0.3-0.5 0.3-0.2 0.2-0.3 13.5-0.5q13.5-0.5 15-0.8z"
       fill="#402929"
       stroke="#402929"
       id="path40" />
    <path
       d="m63.8 229l1.2-1h16l2.5 0.8q2.5 0.7 23 1.4 20.5 0.8 20.5 1.8t16.5 1.2q16.5 0.3 20.5 0.8l4 0.5 0.2 0.3 0.3 0.2 0.3 0.2 0.2 0.3 0.2 0.3 0.3 0.2 0.5 1 0.5 1 0.3 0.2 0.2 0.3-3.2 1.3q-3.3 1.2-3.3 2.7t-0.3 1.7l-0.2 0.3-0.2 0.3-0.3 0.2-0.3 0.2-0.2 0.3 0.2 0.3 0.3 0.2 0.3 0.2 0.2 0.3-0.2 0.3-0.3 0.2-0.3 1-0.2 1 1 0.2 1 0.3h2q1 0 1 0.3v0.2l-0.5 2.2q-0.5 2.3-1.7 1-1.3-1.2-1 0 0.2 1.3-1.6 1-1.7-0.2-2.2-1.2t-1.2-0.2q-0.8 0.7-4.3 1-3.5 0.2-5 4-1.5 3.7-2.7 3.4-1.3-0.2-2.3 1.3t-0.3 5.5q0.8 4-0.2 4t-1 1-1.5 1-2 1.8q-0.5 1.7-2.7 2.4-2.3 0.8-3 2.6-0.8 1.7-1.8 2-1 0.2-2.5 3-1.5 2.7-2.5 3.7t-1.8 2.7q-0.7 1.8-0.7 3.8t-0.5 0.5-1 1-1.2 1.3q-0.8-1.3-3.8 0-3 1.2-4.5 4-1.5 2.7-2 5.2t0.5 2.8q1 0.2-0.2 2.7-1.3 2.5-1.6 2.7l-0.2 0.3-0.2 0.3-0.3 0.2-0.3 0.2-0.2 0.3 1 0.5 1 0.5h0.5q0.5 0 3.5 0h3l0.2 0.3 0.3 0.2 0.3 0.2 0.2 0.3 0.2 0.3 0.3 0.2 0.3 1 0.2 1-1.5-0.2-1.5-0.3h-5q-5 0-6 1l-1 1-0.2 0.3-0.3 0.2-1 2.5q-1 2.5 1 6t1.5 4-0.5 2.5v2l0.3 2.5 0.2 2.5-1.5-0.2-1.5-0.3-0.2-0.3-0.3-0.2h-0.5l-0.2-0.5-0.3-0.5h-0.5l-0.2-1.5-0.3-1.5-0.5-1.5q-0.5-1.5-7.5-22t-8-25.5-3.3-11.8q-2.2-6.7-5.4-16.4-3.3-9.8-2.6-10.3 0.8-0.5 0.6-4-0.3-3.5-1.6-4-1.2-0.5-0.7-4.7 0.5-4.3-2-3.8t-5.3-3.2q-2.7-3.8-1.4-4.8z"
       fill="#594343"
       stroke="#594343"
       id="path42" />
    <path
       d="m91.2 415.2l0.3-0.2 0.3 0.2 0.2 0.3 3 6q3 6 18 5.7 15-0.2 17 5.8t17 6.2q15 0.3 32 0.6l17 0.2v0.5l-4 0.5q-4 0.5-27.5 1.5l-23.5 1-2 0.3-2 0.2 0.2 1 0.3 1 18.5 55.5q18.5 55.5 18.8 58 0.2 2.5-0.8 2.5t0 1.8q1 1.7 2 2 1 0.2 1.2 1.2l0.3 1 0.3 2 0.2 2-1.5-0.2-1.5-0.3-0.2-0.3-0.3-0.2-0.3-2q-0.2-2-4.4-0.5-4.3 1.5-6 1.5-1.8 0-2.3 4t-1.5 4-1.5 1.2q-0.5 1.3-3.3 2-2.7 0.8-2.2 4.8t1 6.5l0.5 2.5 0.3 0.2 0.2 0.3-0.2 0.3-0.3 0.2-0.5 1-0.5 1h-0.5l-0.2-0.5-0.3-0.5-0.5-1-0.5-1-0.5-2-0.5-2-0.5-1.5q-0.5-1.5-3.8-10.3-3.2-8.7-5.7-18-2.5-9.2-3.5-9.2t-1.5-4-1.5-4-3.2-8.5q-2.3-8.5-4.6-7.3l-2.2 1.3-0.2-0.3-0.3-0.2v-3l0.3-0.2q0.2-0.3 1.7 0 1.5 0.2 0.5-3.6-1-3.7-1.8-6.4l-0.7-2.8-0.5-2-0.5-2-0.5 1-0.5 1-0.3 0.2-0.2 0.3 0.2 0.3 0.3 0.2 0.5 1 0.5 1 0.3 0.2 0.2 0.3-1 1.5q-1 1.5 0 2l1 0.5-0.2 0.3-0.3 0.2-0.3 0.2-0.2 0.3 0.2 0.3 0.3 0.2v3l-0.3 0.2-0.2 0.3h-1l-0.2-0.3-0.3-0.2-0.5-2-0.5-2v-3l0.3-0.2q0.2-0.3 0.4-1 0.3-0.8 0.3-3.3t-0.7-6.7q-0.8-4.3-2.8-10.3l-2-6-0.2-0.3-0.3-0.2-0.5-2-0.5-2-0.3 0.2-0.2 0.3-0.2 0.3-0.3 0.2-0.3 2.5-0.2 2.5h-2l0.2-3q0.3-3 1.3-5t-0.3-1.5q-1.2 0.5-1.4-4.5-0.3-5-1.6-4.5-1.2 0.5-1-0.5 0.3-1-1.4-9-1.8-8-2.8-8t-1.5-4.5-1.5-4.5-1.5-4.5-1.5-4.5-1.5-4-1.5-4-1.8-4.5l-0.7-4.5-0.5 1.5q-0.5 1.5-0.8-1.5l-0.2-3 0.5-0.2 0.5-0.3 0.2-0.3z"
       fill="#342020"
       stroke="#342020"
       id="path44" />
    <path
       d="m166.8 663.5l8.2 0.5 1.5 4q1.5 4 0.5 4.2-1 0.3 1 0.6 2 0.2 6.8 14.7 4.7 14.5 4.4 16.3-0.2 1.7-1.7 2.2t0.3 1.2q1.7 0.8 2 1.8l0.2 1-2 0.2-2 0.3-1.5 0.5-1.5 0.5v0.5l-7.5 1.2q-7.5 1.3-11 3.6-3.5 2.2-3.5 3.2t-6.5 5.8q-6.5 4.7-16.5 5.7t-12.5 1.3l-2.5 0.2-0.2-3q-0.3-3-1.3-12.5l-1-9.5 0.3-0.2 0.2-0.3 3-0.5q3-0.5 10 0t9.8-9.8q2.7-10.2 2.2-13.2l-0.5-3-0.3-0.2-0.2-0.3-0.2-0.3-0.3-0.2-0.3-0.2-0.2-0.3-0.2-0.3-0.3-0.2-0.5-1-0.5-1-0.3-0.2-0.2-0.3-2.5-0.3-2.5-0.2-0.2 1-0.3 1-2.7 9.8q-2.8 9.7-3 10-0.3 0.2-0.8 1.7l-0.5 1.5-0.3 0.2-0.2 0.3-3.5 0.5-3.5 0.5-2 0.3-2 0.2-0.2-2.5q-0.3-2.5-1.3-13t2.5-23.5 16.5-14 18 6 13.3 7.5z"
       fill="#100404"
       stroke="#100404"
       id="path46" />
    <path
       d="m25.8 227.8l0.2-0.3 17.5-0.3 17.5-0.2h0.5l0.3 0.2 0.2 0.3 1.5 0.3 1.5 0.2-1.2 1q-1.3 1 1.4 4.8 2.8 3.7 5.3 3.2t3.5 7.8q1 8.2 0.2 8.7-0.7 0.5 2.6 10.3 3.2 9.7 5.4 16.4 2.3 6.8 3.3 11.8t8 25.5 7.5 22l0.5 1.5 0.3 1.5 0.2 1.5v0.2q0 0.3 0.5 0.6l0.5 0.2 7.8 23.5q7.7 23.5 8.2 25l0.5 1.5 0.3 1 0.2 1-1 0.2-1 0.3-0.2 0.3-0.3 0.2-0.3 0.5-0.2 0.5-1.5 0.2q-1.5 0.3-15 0.8l-13.5 0.5-0.2 0.3-0.3 0.2-0.3 0.5-0.2 0.5h-0.2q-0.3 0-0.6 0.2l-0.2 0.3-0.2 0.3-0.3 0.2-0.5-3q-0.5-3-4.5-15.5t-4.7-11.7q-0.8 0.7-1-2-0.3-2.8-0.8-1.8t-0.2-2.5q0.2-3.5-0.8-3.5t-1.5-4.5-1.5-4.5-1.5-4.5-1.5-4.5-1.2-2l-0.3-2-0.5-2-0.5-2-0.5 1-0.5 1-0.3 0.2-0.2 0.3 0.2 0.3q0.3 0.2 0.3 2.2v2l-0.3-0.2-0.2-0.3-0.2-0.3-0.3-0.2-0.3-0.2-0.2-0.3 0.2-0.3 0.3-0.2 0.3-0.2 0.2-0.3-1-0.3-1-0.2 0.2-1.5q0.3-1.5 0.6-6.5 0.2-5-0.8-5t-1.5-4-1.5-4-1.8-4.5q-0.7-4.5-1.2-3t-1.5-4.5-1.3-5q-0.2 1-1.7 1t-1.5-1 1-1.2q1-0.3 0-6.6-1-6.2-2-6.2t-2.5-6-2.5-6-0.8-2q0.3-2-1-1.5-1.2 0.5-1-3 0.3-3.5-1.4-9.5-1.8-6-2.8-6t-1.5-4.5-1.5-4.5-1.5-4-1.5-4-1.2-3l-0.3-3-0.3-1-0.2-1h-2l0.2-1 0.3-1 0.3-0.2z"
       fill="#4b3737"
       stroke="#4b3737"
       id="path48" />
    <path
       d="m575.2 277.8l-0.2-0.3h-3l-0.2 0.3-0.3 0.2-0.3-0.2-0.2-0.3-1-0.5-1-0.5-0.2-0.3q-0.3-0.2-0.3-4.7v-4.5l3.3-3.2q3.2-3.3 6.2-2.8t4.2 1.2q1.3 0.8 1.3 6.8t-1.7 7.8q-1.8 1.7-4 1.4-2.3-0.2-2.6-0.4z"
       fill="#543a3a"
       stroke="#543a3a"
       id="path50" />
    <path
       d="m576 374.5l-5-1-0.8-3.3q-0.7-3.2 2-7 2.8-3.7 6.8-3.7t5.2 3.3q1.3 3.2 0.6 6.4-0.8 3.3-2.3 4.8t-6.5 0.5z"
       fill="#523a3a"
       stroke="#523a3a"
       id="path52" />
    <path
       d="m83.5 228.8l-2.5-0.8h233v0.2q0 0.3-16.5 2.3t-36 2.5-27.5 1.5-24 3-21 3-7.5 1.3l-2.5 0.2 1.2 2q1.3 2 1.3 4v2l-0.5-1q-0.5-1-1 2l-0.5 3-0.3 0.2-0.2 0.3-0.2 0.3-0.3 0.2-0.5-1-0.5-1-0.3 1-0.2 1-1.5-0.2-1.5-0.3-0.2-0.3q-0.3-0.2-1.3-1.7t-2.7-2l-1.8-0.5v-0.2q0-0.3-1-0.3h-2l-1-0.3-1-0.2 0.2-1 0.3-1 0.3-0.2 0.2-0.3-0.2-0.3-0.3-0.2-0.3-0.2-0.2-0.3 0.2-0.3 0.3-0.2 0.3-0.2 0.2-0.3 0.2-0.3q0.3-0.2 0.3-1.7t3.3-2.7l3.2-1.3-0.2-0.3-0.3-0.2-0.5-1-0.5-1-0.3-0.2-0.2-0.3-0.2-0.3-0.3-0.2-0.3-0.2-0.2-0.3-4-0.5q-4-0.5-20.5-0.8-16.5-0.2-16.5-1.2t-20.5-1.8q-20.5-0.7-23-1.4zm94 22.2q-0.5-0.5 0.5-0.8 1-0.2 0.5 0.6-0.5 0.7-1 0.2z"
       fill="#5d4f4f"
       stroke="#5d4f4f"
       id="path54" />
  </g>
</svg>
